<svg xmlns="http://www.w3.org/2000/svg" xmlns:xlink="http://www.w3.org/1999/xlink" width="200" zoomAndPan="magnify" viewBox="0 0 150 112.499997" height="150" preserveAspectRatio="xMidYMid meet" version="1.2"><defs><clipPath id="5a2b497eed"><path d="M 0.332031 0 L 149.667969 0 L 149.667969 112.003906 L 0.332031 112.003906 Z M 0.332031 0 "/></clipPath></defs><g id="54bc306466"><g clip-rule="nonzero" clip-path="url(#5a2b497eed)"><path style=" stroke:none;fill-rule:nonzero;fill:#ffffff;fill-opacity:1;" d="M 0.332031 0 L 149.667969 0 L 149.667969 112.003906 L 0.332031 112.003906 Z M 0.332031 0 "/><path style=" stroke:none;fill-rule:nonzero;fill:#ffffff;fill-opacity:1;" d="M 0.332031 0 L 149.667969 0 L 149.667969 112.003906 L 0.332031 112.003906 Z M 0.332031 0 "/></g><g style="fill:#0d0d0d;fill-opacity:1;"><g transform="translate(0.611866, 91.483027)"><path style="stroke:none" d="M 55.40625 -13.796875 C 55.894531 -13.796875 56.328125 -13.59375 56.703125 -13.1875 L 60.296875 -9.3125 C 57.554688 -6.144531 54.238281 -3.675781 50.34375 -1.90625 C 46.445312 -0.132812 41.734375 0.75 36.203125 0.75 C 31.421875 0.75 27.070312 -0.078125 23.15625 -1.734375 C 19.238281 -3.398438 15.898438 -5.734375 13.140625 -8.734375 C 10.378906 -11.734375 8.234375 -15.328125 6.703125 -19.515625 C 5.179688 -23.710938 4.421875 -28.328125 4.421875 -33.359375 C 4.421875 -38.390625 5.210938 -43 6.796875 -47.1875 C 8.378906 -51.382812 10.609375 -54.988281 13.484375 -58 C 16.359375 -61.019531 19.796875 -63.359375 23.796875 -65.015625 C 27.804688 -66.679688 32.238281 -67.515625 37.09375 -67.515625 C 41.84375 -67.515625 46.035156 -66.753906 49.671875 -65.234375 C 53.304688 -63.710938 56.503906 -61.644531 59.265625 -59.03125 L 56.28125 -54.890625 C 56.09375 -54.578125 55.851562 -54.316406 55.5625 -54.109375 C 55.269531 -53.910156 54.875 -53.8125 54.375 -53.8125 C 53.8125 -53.8125 53.125 -54.113281 52.3125 -54.71875 C 51.507812 -55.332031 50.457031 -56.007812 49.15625 -56.75 C 47.851562 -57.5 46.222656 -58.175781 44.265625 -58.78125 C 42.304688 -59.382812 39.898438 -59.6875 37.046875 -59.6875 C 33.597656 -59.6875 30.441406 -59.085938 27.578125 -57.890625 C 24.722656 -56.691406 22.257812 -54.957031 20.1875 -52.6875 C 18.125 -50.425781 16.519531 -47.664062 15.375 -44.40625 C 14.226562 -41.144531 13.65625 -37.460938 13.65625 -33.359375 C 13.65625 -29.203125 14.25 -25.488281 15.4375 -22.21875 C 16.632812 -18.957031 18.265625 -16.203125 20.328125 -13.953125 C 22.398438 -11.703125 24.84375 -9.984375 27.65625 -8.796875 C 30.46875 -7.617188 33.503906 -7.03125 36.765625 -7.03125 C 38.753906 -7.03125 40.546875 -7.144531 42.140625 -7.375 C 43.742188 -7.613281 45.21875 -7.976562 46.5625 -8.46875 C 47.914062 -8.96875 49.175781 -9.597656 50.34375 -10.359375 C 51.507812 -11.128906 52.664062 -12.039062 53.8125 -13.09375 C 54.34375 -13.5625 54.875 -13.796875 55.40625 -13.796875 Z M 55.40625 -13.796875 "/></g></g><g style="fill:#bf9999;fill-opacity:1;"><g transform="translate(62.866425, 91.483027)"><path style="stroke:none" d="M 78 -66.765625 L 78 0 L 70.078125 0 L 70.078125 -49.0625 C 70.078125 -49.71875 70.097656 -50.414062 70.140625 -51.15625 C 70.191406 -51.90625 70.25 -52.664062 70.3125 -53.4375 L 47.390625 -11.6875 C 46.671875 -10.289062 45.582031 -9.59375 44.125 -9.59375 L 42.8125 -9.59375 C 41.351562 -9.59375 40.269531 -10.289062 39.5625 -11.6875 L 16.171875 -53.625 C 16.359375 -51.976562 16.453125 -50.457031 16.453125 -49.0625 L 16.453125 0 L 8.53125 0 L 8.53125 -66.765625 L 15.1875 -66.765625 C 16 -66.765625 16.617188 -66.6875 17.046875 -66.53125 C 17.484375 -66.375 17.90625 -65.941406 18.3125 -65.234375 L 41.375 -24.140625 C 41.75 -23.390625 42.113281 -22.609375 42.46875 -21.796875 C 42.820312 -20.992188 43.15625 -20.175781 43.46875 -19.34375 C 43.78125 -20.175781 44.109375 -21.003906 44.453125 -21.828125 C 44.796875 -22.648438 45.164062 -23.4375 45.5625 -24.1875 L 68.21875 -65.234375 C 68.582031 -65.941406 68.988281 -66.375 69.4375 -66.53125 C 69.894531 -66.6875 70.523438 -66.765625 71.328125 -66.765625 Z M 78 -66.765625 "/></g></g></g></svg>