<svg xmlns="http://www.w3.org/2000/svg" xmlns:xlink="http://www.w3.org/1999/xlink" width="200" zoomAndPan="magnify" viewBox="0 0 150 149.999998" height="200" preserveAspectRatio="xMidYMid meet" version="1.2"><defs/><g id="a0c39ee6f3"><rect x="0" width="150" y="0" height="149.999998" style="fill:#ffffff;fill-opacity:1;stroke:none;"/><rect x="0" width="150" y="0" height="149.999998" style="fill:#ffffff;fill-opacity:1;stroke:none;"/><g style="fill:#0d0d0d;fill-opacity:1;"><g transform="translate(0.76172, 109.874995)"><path style="stroke:none" d="M 55.28125 -13.765625 C 55.78125 -13.765625 56.21875 -13.5625 56.59375 -13.15625 L 60.171875 -9.296875 C 57.441406 -6.140625 54.128906 -3.675781 50.234375 -1.90625 C 46.347656 -0.132812 41.644531 0.75 36.125 0.75 C 31.351562 0.75 27.015625 -0.078125 23.109375 -1.734375 C 19.203125 -3.398438 15.867188 -5.726562 13.109375 -8.71875 C 10.347656 -11.707031 8.207031 -15.296875 6.6875 -19.484375 C 5.175781 -23.671875 4.421875 -28.273438 4.421875 -33.296875 C 4.421875 -38.316406 5.207031 -42.914062 6.78125 -47.09375 C 8.363281 -51.28125 10.585938 -54.878906 13.453125 -57.890625 C 16.328125 -60.898438 19.765625 -63.234375 23.765625 -64.890625 C 27.765625 -66.546875 32.179688 -67.375 37.015625 -67.375 C 41.753906 -67.375 45.9375 -66.613281 49.5625 -65.09375 C 53.195312 -63.582031 56.390625 -61.523438 59.140625 -58.921875 L 56.171875 -54.78125 C 55.984375 -54.46875 55.742188 -54.207031 55.453125 -54 C 55.160156 -53.800781 54.765625 -53.703125 54.265625 -53.703125 C 53.703125 -53.703125 53.019531 -54.003906 52.21875 -54.609375 C 51.414062 -55.210938 50.363281 -55.882812 49.0625 -56.625 C 47.757812 -57.375 46.128906 -58.050781 44.171875 -58.65625 C 42.222656 -59.257812 39.820312 -59.5625 36.96875 -59.5625 C 33.53125 -59.5625 30.382812 -58.960938 27.53125 -57.765625 C 24.675781 -56.578125 22.21875 -54.851562 20.15625 -52.59375 C 18.09375 -50.332031 16.488281 -47.570312 15.34375 -44.3125 C 14.195312 -41.0625 13.625 -37.390625 13.625 -33.296875 C 13.625 -29.140625 14.21875 -25.429688 15.40625 -22.171875 C 16.601562 -18.921875 18.234375 -16.171875 20.296875 -13.921875 C 22.359375 -11.679688 24.789062 -9.96875 27.59375 -8.78125 C 30.40625 -7.601562 33.4375 -7.015625 36.6875 -7.015625 C 38.675781 -7.015625 40.46875 -7.128906 42.0625 -7.359375 C 43.65625 -7.597656 45.125 -7.960938 46.46875 -8.453125 C 47.820312 -8.953125 49.078125 -9.582031 50.234375 -10.34375 C 51.398438 -11.101562 52.554688 -12.007812 53.703125 -13.0625 C 54.234375 -13.53125 54.757812 -13.765625 55.28125 -13.765625 Z M 55.28125 -13.765625 "/></g></g><g style="fill:#bf9999;fill-opacity:1;"><g transform="translate(62.88281, 109.874995)"><path style="stroke:none" d="M 77.84375 -66.640625 L 77.84375 0 L 69.9375 0 L 69.9375 -48.96875 C 69.9375 -49.613281 69.957031 -50.304688 70 -51.046875 C 70.050781 -51.796875 70.109375 -52.554688 70.171875 -53.328125 L 47.296875 -11.671875 C 46.578125 -10.273438 45.488281 -9.578125 44.03125 -9.578125 L 42.734375 -9.578125 C 41.273438 -9.578125 40.191406 -10.273438 39.484375 -11.671875 L 16.140625 -53.515625 C 16.328125 -51.878906 16.421875 -50.363281 16.421875 -48.96875 L 16.421875 0 L 8.515625 0 L 8.515625 -66.640625 L 15.15625 -66.640625 C 15.96875 -66.640625 16.585938 -66.5625 17.015625 -66.40625 C 17.453125 -66.25 17.875 -65.8125 18.28125 -65.09375 L 41.296875 -24.09375 C 41.660156 -23.34375 42.019531 -22.5625 42.375 -21.75 C 42.738281 -20.945312 43.078125 -20.128906 43.390625 -19.296875 C 43.691406 -20.128906 44.015625 -20.957031 44.359375 -21.78125 C 44.703125 -22.601562 45.078125 -23.390625 45.484375 -24.140625 L 68.078125 -65.09375 C 68.453125 -65.8125 68.863281 -66.25 69.3125 -66.40625 C 69.757812 -66.5625 70.382812 -66.640625 71.1875 -66.640625 Z M 77.84375 -66.640625 "/></g></g></g></svg>