<svg xmlns="http://www.w3.org/2000/svg" xmlns:xlink="http://www.w3.org/1999/xlink" width="900" zoomAndPan="magnify" viewBox="0 0 675 112.499997" height="150" preserveAspectRatio="xMidYMid meet" version="1.2"><defs/><g id="f9f17d3e50"><g style="fill:#0d0d0d;fill-opacity:1;"><g transform="translate(37.404079, 84.275439)"><path style="stroke:none" d="M 43.09375 -10.734375 C 43.488281 -10.734375 43.828125 -10.578125 44.109375 -10.265625 L 46.90625 -7.25 C 44.78125 -4.78125 42.203125 -2.859375 39.171875 -1.484375 C 36.140625 -0.109375 32.472656 0.578125 28.171875 0.578125 C 24.441406 0.578125 21.054688 -0.0664062 18.015625 -1.359375 C 14.972656 -2.648438 12.375 -4.460938 10.21875 -6.796875 C 8.070312 -9.128906 6.40625 -11.925781 5.21875 -15.1875 C 4.03125 -18.445312 3.4375 -22.035156 3.4375 -25.953125 C 3.4375 -29.867188 4.050781 -33.457031 5.28125 -36.71875 C 6.519531 -39.976562 8.253906 -42.78125 10.484375 -45.125 C 12.722656 -47.46875 15.398438 -49.285156 18.515625 -50.578125 C 21.640625 -51.878906 25.085938 -52.53125 28.859375 -52.53125 C 32.554688 -52.53125 35.816406 -51.9375 38.640625 -50.75 C 41.472656 -49.5625 43.960938 -47.953125 46.109375 -45.921875 L 43.796875 -42.703125 C 43.648438 -42.460938 43.460938 -42.265625 43.234375 -42.109375 C 43.003906 -41.953125 42.691406 -41.875 42.296875 -41.875 C 41.867188 -41.875 41.335938 -42.109375 40.703125 -42.578125 C 40.078125 -43.046875 39.253906 -43.566406 38.234375 -44.140625 C 37.222656 -44.722656 35.957031 -45.25 34.4375 -45.71875 C 32.914062 -46.195312 31.039062 -46.4375 28.8125 -46.4375 C 26.132812 -46.4375 23.679688 -45.96875 21.453125 -45.03125 C 19.234375 -44.101562 17.316406 -42.757812 15.703125 -41 C 14.097656 -39.238281 12.847656 -37.085938 11.953125 -34.546875 C 11.066406 -32.003906 10.625 -29.140625 10.625 -25.953125 C 10.625 -22.710938 11.085938 -19.820312 12.015625 -17.28125 C 12.941406 -14.75 14.207031 -12.609375 15.8125 -10.859375 C 17.425781 -9.109375 19.328125 -7.769531 21.515625 -6.84375 C 23.703125 -5.925781 26.0625 -5.46875 28.59375 -5.46875 C 30.144531 -5.46875 31.539062 -5.554688 32.78125 -5.734375 C 34.03125 -5.921875 35.179688 -6.207031 36.234375 -6.59375 C 37.285156 -6.976562 38.265625 -7.46875 39.171875 -8.0625 C 40.078125 -8.65625 40.976562 -9.363281 41.875 -10.1875 C 42.28125 -10.550781 42.6875 -10.734375 43.09375 -10.734375 Z M 43.09375 -10.734375 "/></g></g><g style="fill:#0d0d0d;fill-opacity:1;"><g transform="translate(85.107705, 84.275439)"><path style="stroke:none" d="M 20.59375 -37.296875 C 23.269531 -37.296875 25.679688 -36.847656 27.828125 -35.953125 C 29.984375 -35.066406 31.820312 -33.800781 33.34375 -32.15625 C 34.875 -30.507812 36.039062 -28.519531 36.84375 -26.1875 C 37.65625 -23.851562 38.0625 -21.25 38.0625 -18.375 C 38.0625 -15.476562 37.65625 -12.867188 36.84375 -10.546875 C 36.039062 -8.222656 34.875 -6.238281 33.34375 -4.59375 C 31.820312 -2.957031 29.984375 -1.695312 27.828125 -0.8125 C 25.679688 0.0625 23.269531 0.5 20.59375 0.5 C 17.882812 0.5 15.445312 0.0625 13.28125 -0.8125 C 11.125 -1.695312 9.28125 -2.957031 7.75 -4.59375 C 6.226562 -6.238281 5.0625 -8.222656 4.25 -10.546875 C 3.445312 -12.867188 3.046875 -15.476562 3.046875 -18.375 C 3.046875 -21.25 3.445312 -23.851562 4.25 -26.1875 C 5.0625 -28.519531 6.226562 -30.507812 7.75 -32.15625 C 9.28125 -33.800781 11.125 -35.066406 13.28125 -35.953125 C 15.445312 -36.847656 17.882812 -37.296875 20.59375 -37.296875 Z M 20.59375 -4.53125 C 24.21875 -4.53125 26.921875 -5.742188 28.703125 -8.171875 C 30.492188 -10.597656 31.390625 -13.988281 31.390625 -18.34375 C 31.390625 -22.71875 30.492188 -26.125 28.703125 -28.5625 C 26.921875 -31 24.21875 -32.21875 20.59375 -32.21875 C 18.75 -32.21875 17.144531 -31.90625 15.78125 -31.28125 C 14.414062 -30.65625 13.28125 -29.75 12.375 -28.5625 C 11.46875 -27.375 10.789062 -25.914062 10.34375 -24.1875 C 9.894531 -22.46875 9.671875 -20.519531 9.671875 -18.34375 C 9.671875 -13.988281 10.570312 -10.597656 12.375 -8.171875 C 14.175781 -5.742188 16.914062 -4.53125 20.59375 -4.53125 Z M 20.59375 -4.53125 "/></g></g><g style="fill:#0d0d0d;fill-opacity:1;"><g transform="translate(126.214055, 84.275439)"><path style="stroke:none" d="M 11.203125 -31.390625 C 11.992188 -32.285156 12.835938 -33.09375 13.734375 -33.8125 C 14.628906 -34.539062 15.578125 -35.164062 16.578125 -35.6875 C 17.585938 -36.207031 18.648438 -36.601562 19.765625 -36.875 C 20.890625 -37.15625 22.109375 -37.296875 23.421875 -37.296875 C 25.421875 -37.296875 27.1875 -36.960938 28.71875 -36.296875 C 30.257812 -35.640625 31.539062 -34.695312 32.5625 -33.46875 C 33.59375 -32.25 34.375 -30.78125 34.90625 -29.0625 C 35.4375 -27.351562 35.703125 -25.457031 35.703125 -23.375 L 35.703125 0 L 29.21875 0 L 29.21875 -23.375 C 29.21875 -26.15625 28.582031 -28.3125 27.3125 -29.84375 C 26.039062 -31.382812 24.113281 -32.15625 21.53125 -32.15625 C 19.625 -32.15625 17.84375 -31.695312 16.1875 -30.78125 C 14.53125 -29.863281 13 -28.617188 11.59375 -27.046875 L 11.59375 0 L 5.109375 0 L 5.109375 -36.71875 L 8.984375 -36.71875 C 9.910156 -36.71875 10.476562 -36.269531 10.6875 -35.375 Z M 11.203125 -31.390625 "/></g></g><g style="fill:#0d0d0d;fill-opacity:1;"><g transform="translate(166.160402, 84.275439)"><path style="stroke:none" d="M 16.390625 0.578125 C 13.484375 0.578125 11.25 -0.226562 9.6875 -1.84375 C 8.132812 -3.46875 7.359375 -5.800781 7.359375 -8.84375 L 7.359375 -31.3125 L 2.9375 -31.3125 C 2.550781 -31.3125 2.222656 -31.425781 1.953125 -31.65625 C 1.691406 -31.894531 1.5625 -32.253906 1.5625 -32.734375 L 1.5625 -35.3125 L 7.578125 -36.0625 L 9.0625 -47.421875 C 9.132812 -47.773438 9.296875 -48.066406 9.546875 -48.296875 C 9.804688 -48.523438 10.140625 -48.640625 10.546875 -48.640625 L 13.8125 -48.640625 L 13.8125 -36 L 24.4375 -36 L 24.4375 -31.3125 L 13.8125 -31.3125 L 13.8125 -9.28125 C 13.8125 -7.726562 14.1875 -6.578125 14.9375 -5.828125 C 15.6875 -5.085938 16.648438 -4.71875 17.828125 -4.71875 C 18.503906 -4.71875 19.09375 -4.804688 19.59375 -4.984375 C 20.09375 -5.160156 20.519531 -5.359375 20.875 -5.578125 C 21.238281 -5.796875 21.546875 -5.992188 21.796875 -6.171875 C 22.054688 -6.359375 22.28125 -6.453125 22.46875 -6.453125 C 22.8125 -6.453125 23.113281 -6.25 23.375 -5.84375 L 25.265625 -2.75 C 24.148438 -1.71875 22.804688 -0.90625 21.234375 -0.3125 C 19.671875 0.28125 18.054688 0.578125 16.390625 0.578125 Z M 16.390625 0.578125 "/></g></g><g style="fill:#0d0d0d;fill-opacity:1;"><g transform="translate(192.15092, 84.275439)"><path style="stroke:none" d="M 25.015625 -16.53125 C 22.035156 -16.4375 19.5 -16.203125 17.40625 -15.828125 C 15.320312 -15.453125 13.617188 -14.960938 12.296875 -14.359375 C 10.984375 -13.753906 10.03125 -13.039062 9.4375 -12.21875 C 8.851562 -11.394531 8.5625 -10.476562 8.5625 -9.46875 C 8.5625 -8.5 8.71875 -7.660156 9.03125 -6.953125 C 9.34375 -6.253906 9.769531 -5.679688 10.3125 -5.234375 C 10.851562 -4.785156 11.492188 -4.457031 12.234375 -4.25 C 12.972656 -4.050781 13.765625 -3.953125 14.609375 -3.953125 C 15.742188 -3.953125 16.78125 -4.066406 17.71875 -4.296875 C 18.664062 -4.523438 19.554688 -4.851562 20.390625 -5.28125 C 21.222656 -5.71875 22.019531 -6.238281 22.78125 -6.84375 C 23.539062 -7.445312 24.285156 -8.140625 25.015625 -8.921875 Z M 4.171875 -31.53125 C 6.203125 -33.488281 8.390625 -34.953125 10.734375 -35.921875 C 13.078125 -36.890625 15.675781 -37.375 18.53125 -37.375 C 20.582031 -37.375 22.40625 -37.035156 24 -36.359375 C 25.59375 -35.679688 26.929688 -34.738281 28.015625 -33.53125 C 29.109375 -32.320312 29.929688 -30.859375 30.484375 -29.140625 C 31.035156 -27.429688 31.3125 -25.546875 31.3125 -23.484375 L 31.3125 0 L 28.453125 0 C 27.828125 0 27.34375 -0.0976562 27 -0.296875 C 26.664062 -0.503906 26.398438 -0.910156 26.203125 -1.515625 L 25.484375 -5 C 24.515625 -4.101562 23.570312 -3.3125 22.65625 -2.625 C 21.738281 -1.9375 20.769531 -1.359375 19.75 -0.890625 C 18.738281 -0.421875 17.660156 -0.0625 16.515625 0.1875 C 15.367188 0.445312 14.09375 0.578125 12.6875 0.578125 C 11.257812 0.578125 9.914062 0.378906 8.65625 -0.015625 C 7.40625 -0.410156 6.3125 -1.007812 5.375 -1.8125 C 4.445312 -2.613281 3.710938 -3.625 3.171875 -4.84375 C 2.628906 -6.0625 2.359375 -7.503906 2.359375 -9.171875 C 2.359375 -10.617188 2.753906 -12.015625 3.546875 -13.359375 C 4.347656 -14.703125 5.640625 -15.890625 7.421875 -16.921875 C 9.210938 -17.960938 11.546875 -18.816406 14.421875 -19.484375 C 17.296875 -20.148438 20.828125 -20.53125 25.015625 -20.625 L 25.015625 -23.484375 C 25.015625 -26.335938 24.394531 -28.492188 23.15625 -29.953125 C 21.925781 -31.421875 20.128906 -32.15625 17.765625 -32.15625 C 16.171875 -32.15625 14.832031 -31.953125 13.75 -31.546875 C 12.675781 -31.148438 11.742188 -30.703125 10.953125 -30.203125 C 10.171875 -29.710938 9.492188 -29.269531 8.921875 -28.875 C 8.359375 -28.476562 7.800781 -28.28125 7.25 -28.28125 C 6.8125 -28.28125 6.4375 -28.394531 6.125 -28.625 C 5.8125 -28.851562 5.546875 -29.132812 5.328125 -29.46875 Z M 4.171875 -31.53125 "/></g></g><g style="fill:#0d0d0d;fill-opacity:1;"><g transform="translate(228.182409, 84.275439)"><path style="stroke:none" d="M 11.59375 -8.84375 C 12.78125 -7.25 14.082031 -6.125 15.5 -5.46875 C 16.914062 -4.820312 18.46875 -4.5 20.15625 -4.5 C 23.613281 -4.5 26.257812 -5.71875 28.09375 -8.15625 C 29.925781 -10.59375 30.84375 -14.226562 30.84375 -19.0625 C 30.84375 -23.5625 30.023438 -26.867188 28.390625 -28.984375 C 26.765625 -31.097656 24.441406 -32.15625 21.421875 -32.15625 C 19.316406 -32.15625 17.484375 -31.671875 15.921875 -30.703125 C 14.367188 -29.734375 12.925781 -28.367188 11.59375 -26.609375 Z M 11.59375 -31.421875 C 13.144531 -33.210938 14.890625 -34.640625 16.828125 -35.703125 C 18.773438 -36.765625 21.019531 -37.296875 23.5625 -37.296875 C 25.707031 -37.296875 27.644531 -36.882812 29.375 -36.0625 C 31.101562 -35.25 32.570312 -34.0625 33.78125 -32.5 C 34.988281 -30.9375 35.910156 -29.039062 36.546875 -26.8125 C 37.191406 -24.59375 37.515625 -22.097656 37.515625 -19.328125 C 37.515625 -16.347656 37.148438 -13.640625 36.421875 -11.203125 C 35.703125 -8.765625 34.660156 -6.679688 33.296875 -4.953125 C 31.929688 -3.222656 30.269531 -1.878906 28.3125 -0.921875 C 26.351562 0.0234375 24.15625 0.5 21.71875 0.5 C 19.300781 0.5 17.265625 0.046875 15.609375 -0.859375 C 13.953125 -1.765625 12.507812 -3.050781 11.28125 -4.71875 L 10.953125 -1.375 C 10.753906 -0.457031 10.195312 0 9.28125 0 L 5.109375 0 L 5.109375 -53.390625 L 11.59375 -53.390625 Z M 11.59375 -31.421875 "/></g></g><g style="fill:#0d0d0d;fill-opacity:1;"><g transform="translate(268.781282, 84.275439)"><path style="stroke:none" d="M 11.921875 -36.71875 L 11.921875 0 L 5.46875 0 L 5.46875 -36.71875 Z M 13.296875 -48.25 C 13.296875 -47.625 13.171875 -47.035156 12.921875 -46.484375 C 12.671875 -45.941406 12.332031 -45.457031 11.90625 -45.03125 C 11.488281 -44.613281 10.992188 -44.285156 10.421875 -44.046875 C 9.847656 -43.804688 9.25 -43.6875 8.625 -43.6875 C 8 -43.6875 7.410156 -43.804688 6.859375 -44.046875 C 6.316406 -44.285156 5.84375 -44.613281 5.4375 -45.03125 C 5.03125 -45.457031 4.703125 -45.941406 4.453125 -46.484375 C 4.210938 -47.035156 4.09375 -47.625 4.09375 -48.25 C 4.09375 -48.875 4.210938 -49.46875 4.453125 -50.03125 C 4.703125 -50.601562 5.03125 -51.097656 5.4375 -51.515625 C 5.84375 -51.941406 6.316406 -52.273438 6.859375 -52.515625 C 7.410156 -52.765625 8 -52.890625 8.625 -52.890625 C 9.25 -52.890625 9.847656 -52.765625 10.421875 -52.515625 C 10.992188 -52.273438 11.488281 -51.941406 11.90625 -51.515625 C 12.332031 -51.097656 12.671875 -50.601562 12.921875 -50.03125 C 13.171875 -49.46875 13.296875 -48.875 13.296875 -48.25 Z M 13.296875 -48.25 "/></g></g><g style="fill:#0d0d0d;fill-opacity:1;"><g transform="translate(286.180772, 84.275439)"><path style="stroke:none" d="M 11.78125 -53.390625 L 11.78125 0 L 5.328125 0 L 5.328125 -53.390625 Z M 11.78125 -53.390625 "/></g></g><g style="fill:#0d0d0d;fill-opacity:1;"><g transform="translate(303.290321, 84.275439)"><path style="stroke:none" d="M 11.921875 -36.71875 L 11.921875 0 L 5.46875 0 L 5.46875 -36.71875 Z M 13.296875 -48.25 C 13.296875 -47.625 13.171875 -47.035156 12.921875 -46.484375 C 12.671875 -45.941406 12.332031 -45.457031 11.90625 -45.03125 C 11.488281 -44.613281 10.992188 -44.285156 10.421875 -44.046875 C 9.847656 -43.804688 9.25 -43.6875 8.625 -43.6875 C 8 -43.6875 7.410156 -43.804688 6.859375 -44.046875 C 6.316406 -44.285156 5.84375 -44.613281 5.4375 -45.03125 C 5.03125 -45.457031 4.703125 -45.941406 4.453125 -46.484375 C 4.210938 -47.035156 4.09375 -47.625 4.09375 -48.25 C 4.09375 -48.875 4.210938 -49.46875 4.453125 -50.03125 C 4.703125 -50.601562 5.03125 -51.097656 5.4375 -51.515625 C 5.84375 -51.941406 6.316406 -52.273438 6.859375 -52.515625 C 7.410156 -52.765625 8 -52.890625 8.625 -52.890625 C 9.25 -52.890625 9.847656 -52.765625 10.421875 -52.515625 C 10.992188 -52.273438 11.488281 -51.941406 11.90625 -51.515625 C 12.332031 -51.097656 12.671875 -50.601562 12.921875 -50.03125 C 13.171875 -49.46875 13.296875 -48.875 13.296875 -48.25 Z M 13.296875 -48.25 "/></g></g><g style="fill:#0d0d0d;fill-opacity:1;"><g transform="translate(320.68981, 84.275439)"><path style="stroke:none" d="M 30.453125 -33.96875 C 30.453125 -33.507812 30.375 -33.0625 30.21875 -32.625 C 30.0625 -32.1875 29.847656 -31.8125 29.578125 -31.5 L 9.671875 -5.03125 L 29.765625 -5.03125 L 29.765625 0 L 2.109375 0 L 2.109375 -2.6875 C 2.109375 -3 2.175781 -3.363281 2.3125 -3.78125 C 2.457031 -4.207031 2.675781 -4.613281 2.96875 -5 L 22.984375 -31.640625 L 3.21875 -31.640625 L 3.21875 -36.71875 L 30.453125 -36.71875 Z M 30.453125 -33.96875 "/></g></g><g style="fill:#0d0d0d;fill-opacity:1;"><g transform="translate(353.458909, 84.275439)"><path style="stroke:none" d="M 25.015625 -16.53125 C 22.035156 -16.4375 19.5 -16.203125 17.40625 -15.828125 C 15.320312 -15.453125 13.617188 -14.960938 12.296875 -14.359375 C 10.984375 -13.753906 10.03125 -13.039062 9.4375 -12.21875 C 8.851562 -11.394531 8.5625 -10.476562 8.5625 -9.46875 C 8.5625 -8.5 8.71875 -7.660156 9.03125 -6.953125 C 9.34375 -6.253906 9.769531 -5.679688 10.3125 -5.234375 C 10.851562 -4.785156 11.492188 -4.457031 12.234375 -4.25 C 12.972656 -4.050781 13.765625 -3.953125 14.609375 -3.953125 C 15.742188 -3.953125 16.78125 -4.066406 17.71875 -4.296875 C 18.664062 -4.523438 19.554688 -4.851562 20.390625 -5.28125 C 21.222656 -5.71875 22.019531 -6.238281 22.78125 -6.84375 C 23.539062 -7.445312 24.285156 -8.140625 25.015625 -8.921875 Z M 4.171875 -31.53125 C 6.203125 -33.488281 8.390625 -34.953125 10.734375 -35.921875 C 13.078125 -36.890625 15.675781 -37.375 18.53125 -37.375 C 20.582031 -37.375 22.40625 -37.035156 24 -36.359375 C 25.59375 -35.679688 26.929688 -34.738281 28.015625 -33.53125 C 29.109375 -32.320312 29.929688 -30.859375 30.484375 -29.140625 C 31.035156 -27.429688 31.3125 -25.546875 31.3125 -23.484375 L 31.3125 0 L 28.453125 0 C 27.828125 0 27.34375 -0.0976562 27 -0.296875 C 26.664062 -0.503906 26.398438 -0.910156 26.203125 -1.515625 L 25.484375 -5 C 24.515625 -4.101562 23.570312 -3.3125 22.65625 -2.625 C 21.738281 -1.9375 20.769531 -1.359375 19.75 -0.890625 C 18.738281 -0.421875 17.660156 -0.0625 16.515625 0.1875 C 15.367188 0.445312 14.09375 0.578125 12.6875 0.578125 C 11.257812 0.578125 9.914062 0.378906 8.65625 -0.015625 C 7.40625 -0.410156 6.3125 -1.007812 5.375 -1.8125 C 4.445312 -2.613281 3.710938 -3.625 3.171875 -4.84375 C 2.628906 -6.0625 2.359375 -7.503906 2.359375 -9.171875 C 2.359375 -10.617188 2.753906 -12.015625 3.546875 -13.359375 C 4.347656 -14.703125 5.640625 -15.890625 7.421875 -16.921875 C 9.210938 -17.960938 11.546875 -18.816406 14.421875 -19.484375 C 17.296875 -20.148438 20.828125 -20.53125 25.015625 -20.625 L 25.015625 -23.484375 C 25.015625 -26.335938 24.394531 -28.492188 23.15625 -29.953125 C 21.925781 -31.421875 20.128906 -32.15625 17.765625 -32.15625 C 16.171875 -32.15625 14.832031 -31.953125 13.75 -31.546875 C 12.675781 -31.148438 11.742188 -30.703125 10.953125 -30.203125 C 10.171875 -29.710938 9.492188 -29.269531 8.921875 -28.875 C 8.359375 -28.476562 7.800781 -28.28125 7.25 -28.28125 C 6.8125 -28.28125 6.4375 -28.394531 6.125 -28.625 C 5.8125 -28.851562 5.546875 -29.132812 5.328125 -29.46875 Z M 4.171875 -31.53125 "/></g></g><g style="fill:#000000;fill-opacity:1;"><g transform="translate(389.499347, 84.275439)"><path style="stroke:none" d=""/></g></g><g style="fill:#f2f2eb;fill-opacity:1;"><g transform="translate(408.061375, 84.275439)"><path style="stroke:none" d="M 60.6875 -51.953125 L 60.6875 0 L 54.515625 0 L 54.515625 -38.171875 C 54.515625 -38.679688 54.53125 -39.222656 54.5625 -39.796875 C 54.601562 -40.378906 54.648438 -40.972656 54.703125 -41.578125 L 36.859375 -9.09375 C 36.304688 -8.007812 35.460938 -7.46875 34.328125 -7.46875 L 33.3125 -7.46875 C 32.175781 -7.46875 31.332031 -8.007812 30.78125 -9.09375 L 12.578125 -41.71875 C 12.722656 -40.4375 12.796875 -39.253906 12.796875 -38.171875 L 12.796875 0 L 6.640625 0 L 6.640625 -51.953125 L 11.8125 -51.953125 C 12.445312 -51.953125 12.929688 -51.890625 13.265625 -51.765625 C 13.609375 -51.640625 13.9375 -51.300781 14.25 -50.75 L 32.1875 -18.78125 C 32.476562 -18.195312 32.757812 -17.585938 33.03125 -16.953125 C 33.3125 -16.328125 33.578125 -15.691406 33.828125 -15.046875 C 34.066406 -15.691406 34.316406 -16.332031 34.578125 -16.96875 C 34.847656 -17.613281 35.140625 -18.226562 35.453125 -18.8125 L 53.0625 -50.75 C 53.351562 -51.300781 53.675781 -51.640625 54.03125 -51.765625 C 54.382812 -51.890625 54.875 -51.953125 55.5 -51.953125 Z M 60.6875 -51.953125 "/></g></g><g style="fill:#f2f2eb;fill-opacity:1;"><g transform="translate(474.25195, 84.275439)"><path style="stroke:none" d="M 29.6875 -22.359375 C 29.6875 -23.859375 29.472656 -25.226562 29.046875 -26.46875 C 28.628906 -27.71875 28.015625 -28.796875 27.203125 -29.703125 C 26.390625 -30.609375 25.40625 -31.304688 24.25 -31.796875 C 23.09375 -32.296875 21.773438 -32.546875 20.296875 -32.546875 C 17.203125 -32.546875 14.753906 -31.644531 12.953125 -29.84375 C 11.160156 -28.050781 10.046875 -25.554688 9.609375 -22.359375 Z M 34.90625 -5.140625 C 34.113281 -4.179688 33.160156 -3.34375 32.046875 -2.625 C 30.929688 -1.914062 29.738281 -1.332031 28.46875 -0.875 C 27.207031 -0.414062 25.898438 -0.0703125 24.546875 0.15625 C 23.191406 0.382812 21.847656 0.5 20.515625 0.5 C 17.984375 0.5 15.644531 0.0703125 13.5 -0.78125 C 11.363281 -1.632812 9.515625 -2.890625 7.953125 -4.546875 C 6.398438 -6.203125 5.1875 -8.25 4.3125 -10.6875 C 3.445312 -13.132812 3.015625 -15.941406 3.015625 -19.109375 C 3.015625 -21.671875 3.40625 -24.0625 4.1875 -26.28125 C 4.96875 -28.5 6.09375 -30.425781 7.5625 -32.0625 C 9.039062 -33.695312 10.84375 -34.976562 12.96875 -35.90625 C 15.101562 -36.832031 17.5 -37.296875 20.15625 -37.296875 C 22.351562 -37.296875 24.390625 -36.925781 26.265625 -36.1875 C 28.140625 -35.457031 29.757812 -34.394531 31.125 -33 C 32.488281 -31.613281 33.554688 -29.898438 34.328125 -27.859375 C 35.097656 -25.816406 35.484375 -23.488281 35.484375 -20.875 C 35.484375 -19.863281 35.375 -19.1875 35.15625 -18.84375 C 34.945312 -18.507812 34.539062 -18.34375 33.9375 -18.34375 L 9.390625 -18.34375 C 9.460938 -16.019531 9.78125 -14 10.34375 -12.28125 C 10.914062 -10.570312 11.707031 -9.140625 12.71875 -7.984375 C 13.738281 -6.835938 14.945312 -5.976562 16.34375 -5.40625 C 17.75 -4.84375 19.320312 -4.5625 21.0625 -4.5625 C 22.675781 -4.5625 24.066406 -4.75 25.234375 -5.125 C 26.410156 -5.5 27.421875 -5.90625 28.265625 -6.34375 C 29.117188 -6.78125 29.828125 -7.1875 30.390625 -7.5625 C 30.960938 -7.9375 31.453125 -8.125 31.859375 -8.125 C 32.390625 -8.125 32.800781 -7.914062 33.09375 -7.5 Z M 34.90625 -5.140625 "/></g></g><g style="fill:#f2f2eb;fill-opacity:1;"><g transform="translate(512.530877, 84.275439)"><path style="stroke:none" d="M 11.78125 -53.390625 L 11.78125 0 L 5.328125 0 L 5.328125 -53.390625 Z M 11.78125 -53.390625 "/></g></g><g style="fill:#f2f2eb;fill-opacity:1;"><g transform="translate(529.640403, 84.275439)"><path style="stroke:none" d="M 11.59375 -31.828125 C 13.164062 -33.492188 14.90625 -34.820312 16.8125 -35.8125 C 18.726562 -36.800781 20.929688 -37.296875 23.421875 -37.296875 C 25.421875 -37.296875 27.1875 -36.960938 28.71875 -36.296875 C 30.257812 -35.640625 31.539062 -34.695312 32.5625 -33.46875 C 33.59375 -32.25 34.375 -30.78125 34.90625 -29.0625 C 35.4375 -27.351562 35.703125 -25.457031 35.703125 -23.375 L 35.703125 0 L 29.21875 0 L 29.21875 -23.375 C 29.21875 -26.15625 28.582031 -28.3125 27.3125 -29.84375 C 26.039062 -31.382812 24.113281 -32.15625 21.53125 -32.15625 C 19.625 -32.15625 17.84375 -31.695312 16.1875 -30.78125 C 14.53125 -29.863281 13 -28.617188 11.59375 -27.046875 L 11.59375 0 L 5.109375 0 L 5.109375 -53.390625 L 11.59375 -53.390625 Z M 11.59375 -31.828125 "/></g></g><g style="fill:#f2f2eb;fill-opacity:1;"><g transform="translate(570.094273, 84.275439)"><path style="stroke:none" d="M 20.59375 -37.296875 C 23.269531 -37.296875 25.679688 -36.847656 27.828125 -35.953125 C 29.984375 -35.066406 31.820312 -33.800781 33.34375 -32.15625 C 34.875 -30.507812 36.039062 -28.519531 36.84375 -26.1875 C 37.65625 -23.851562 38.0625 -21.25 38.0625 -18.375 C 38.0625 -15.476562 37.65625 -12.867188 36.84375 -10.546875 C 36.039062 -8.222656 34.875 -6.238281 33.34375 -4.59375 C 31.820312 -2.957031 29.984375 -1.695312 27.828125 -0.8125 C 25.679688 0.0625 23.269531 0.5 20.59375 0.5 C 17.882812 0.5 15.445312 0.0625 13.28125 -0.8125 C 11.125 -1.695312 9.28125 -2.957031 7.75 -4.59375 C 6.226562 -6.238281 5.0625 -8.222656 4.25 -10.546875 C 3.445312 -12.867188 3.046875 -15.476562 3.046875 -18.375 C 3.046875 -21.25 3.445312 -23.851562 4.25 -26.1875 C 5.0625 -28.519531 6.226562 -30.507812 7.75 -32.15625 C 9.28125 -33.800781 11.125 -35.066406 13.28125 -35.953125 C 15.445312 -36.847656 17.882812 -37.296875 20.59375 -37.296875 Z M 20.59375 -4.53125 C 24.21875 -4.53125 26.921875 -5.742188 28.703125 -8.171875 C 30.492188 -10.597656 31.390625 -13.988281 31.390625 -18.34375 C 31.390625 -22.71875 30.492188 -26.125 28.703125 -28.5625 C 26.921875 -31 24.21875 -32.21875 20.59375 -32.21875 C 18.75 -32.21875 17.144531 -31.90625 15.78125 -31.28125 C 14.414062 -30.65625 13.28125 -29.75 12.375 -28.5625 C 11.46875 -27.375 10.789062 -25.914062 10.34375 -24.1875 C 9.894531 -22.46875 9.671875 -20.519531 9.671875 -18.34375 C 9.671875 -13.988281 10.570312 -10.597656 12.375 -8.171875 C 14.175781 -5.742188 16.914062 -4.53125 20.59375 -4.53125 Z M 20.59375 -4.53125 "/></g></g><g style="fill:#f2f2eb;fill-opacity:1;"><g transform="translate(611.200633, 84.275439)"><path style="stroke:none" d="M 11.234375 -29.359375 C 12.398438 -31.867188 13.828125 -33.832031 15.515625 -35.25 C 17.203125 -36.664062 19.269531 -37.375 21.71875 -37.375 C 22.488281 -37.375 23.226562 -37.285156 23.9375 -37.109375 C 24.65625 -36.941406 25.289062 -36.679688 25.84375 -36.328125 L 25.375 -31.5 C 25.226562 -30.894531 24.863281 -30.59375 24.28125 -30.59375 C 23.945312 -30.59375 23.453125 -30.664062 22.796875 -30.8125 C 22.148438 -30.957031 21.414062 -31.03125 20.59375 -31.03125 C 19.425781 -31.03125 18.390625 -30.859375 17.484375 -30.515625 C 16.578125 -30.179688 15.769531 -29.679688 15.0625 -29.015625 C 14.351562 -28.347656 13.710938 -27.523438 13.140625 -26.546875 C 12.566406 -25.566406 12.050781 -24.453125 11.59375 -23.203125 L 11.59375 0 L 5.109375 0 L 5.109375 -36.71875 L 8.8125 -36.71875 C 9.507812 -36.71875 9.988281 -36.582031 10.25 -36.3125 C 10.519531 -36.050781 10.703125 -35.59375 10.796875 -34.9375 Z M 11.234375 -29.359375 "/></g></g></g></svg>