<svg xmlns="http://www.w3.org/2000/svg" xmlns:xlink="http://www.w3.org/1999/xlink" width="200" zoomAndPan="magnify" viewBox="0 0 150 89.999999" height="120" preserveAspectRatio="xMidYMid meet" version="1.2"><defs/><g id="f8066d1670"><g style="fill:#0d0d0d;fill-opacity:1;"><g transform="translate(0.128907, 80.624998)"><path style="stroke:none" d="M 55.75 -13.875 C 56.25 -13.875 56.6875 -13.671875 57.0625 -13.265625 L 60.671875 -9.375 C 57.921875 -6.1875 54.582031 -3.703125 50.65625 -1.921875 C 46.738281 -0.140625 42 0.75 36.4375 0.75 C 31.625 0.75 27.242188 -0.0820312 23.296875 -1.75 C 19.359375 -3.425781 16 -5.769531 13.21875 -8.78125 C 10.4375 -11.800781 8.28125 -15.421875 6.75 -19.640625 C 5.21875 -23.867188 4.453125 -28.515625 4.453125 -33.578125 C 4.453125 -38.640625 5.25 -43.28125 6.84375 -47.5 C 8.4375 -51.71875 10.675781 -55.34375 13.5625 -58.375 C 16.457031 -61.40625 19.921875 -63.753906 23.953125 -65.421875 C 27.992188 -67.097656 32.453125 -67.9375 37.328125 -67.9375 C 42.109375 -67.9375 46.328125 -67.171875 49.984375 -65.640625 C 53.640625 -64.109375 56.859375 -62.03125 59.640625 -59.40625 L 56.640625 -55.234375 C 56.453125 -54.921875 56.207031 -54.660156 55.90625 -54.453125 C 55.613281 -54.253906 55.21875 -54.15625 54.71875 -54.15625 C 54.15625 -54.15625 53.46875 -54.457031 52.65625 -55.0625 C 51.84375 -55.675781 50.78125 -56.359375 49.46875 -57.109375 C 48.15625 -57.859375 46.515625 -58.535156 44.546875 -59.140625 C 42.578125 -59.753906 40.15625 -60.0625 37.28125 -60.0625 C 33.8125 -60.0625 30.640625 -59.457031 27.765625 -58.25 C 24.890625 -57.050781 22.410156 -55.3125 20.328125 -53.03125 C 18.242188 -50.75 16.625 -47.96875 15.46875 -44.6875 C 14.3125 -41.40625 13.734375 -37.703125 13.734375 -33.578125 C 13.734375 -29.390625 14.332031 -25.648438 15.53125 -22.359375 C 16.738281 -19.078125 18.382812 -16.300781 20.46875 -14.03125 C 22.550781 -11.769531 25.003906 -10.046875 27.828125 -8.859375 C 30.660156 -7.671875 33.71875 -7.078125 37 -7.078125 C 39 -7.078125 40.800781 -7.191406 42.40625 -7.421875 C 44.019531 -7.660156 45.503906 -8.03125 46.859375 -8.53125 C 48.222656 -9.03125 49.488281 -9.660156 50.65625 -10.421875 C 51.832031 -11.191406 53 -12.109375 54.15625 -13.171875 C 54.6875 -13.640625 55.21875 -13.875 55.75 -13.875 Z M 55.75 -13.875 "/></g></g><g style="fill:#1f818c;fill-opacity:1;"><g transform="translate(62.777341, 80.624998)"><path style="stroke:none" d="M 78.5 -67.1875 L 78.5 0 L 70.53125 0 L 70.53125 -49.375 C 70.53125 -50.03125 70.550781 -50.734375 70.59375 -51.484375 C 70.644531 -52.234375 70.703125 -53 70.765625 -53.78125 L 47.6875 -11.765625 C 46.96875 -10.359375 45.875 -9.65625 44.40625 -9.65625 L 43.09375 -9.65625 C 41.625 -9.65625 40.53125 -10.359375 39.8125 -11.765625 L 16.265625 -53.96875 C 16.453125 -52.3125 16.546875 -50.78125 16.546875 -49.375 L 16.546875 0 L 8.578125 0 L 8.578125 -67.1875 L 15.28125 -67.1875 C 16.09375 -67.1875 16.71875 -67.109375 17.15625 -66.953125 C 17.59375 -66.796875 18.015625 -66.359375 18.421875 -65.640625 L 41.640625 -24.296875 C 42.015625 -23.535156 42.378906 -22.75 42.734375 -21.9375 C 43.097656 -21.125 43.4375 -20.296875 43.75 -19.453125 C 44.0625 -20.296875 44.390625 -21.128906 44.734375 -21.953125 C 45.078125 -22.785156 45.453125 -23.582031 45.859375 -24.34375 L 68.640625 -65.640625 C 69.015625 -66.359375 69.429688 -66.796875 69.890625 -66.953125 C 70.347656 -67.109375 70.984375 -67.1875 71.796875 -67.1875 Z M 78.5 -67.1875 "/></g></g></g></svg>