<svg xmlns="http://www.w3.org/2000/svg" xmlns:xlink="http://www.w3.org/1999/xlink" width="200" zoomAndPan="magnify" viewBox="0 0 150 97.92" height="120" preserveAspectRatio="xMidYMid meet" version="1.2"><defs><clipPath id="644930eeac"><path d="M 26.96875 9 L 122.890625 9 L 122.890625 80.933594 L 26.96875 80.933594 Z M 26.96875 9 "/></clipPath></defs><g id="6eb5e20f27"><g clip-rule="nonzero" clip-path="url(#644930eeac)"><path style=" stroke:none;fill-rule:nonzero;fill:#f2f2eb;fill-opacity:1;" d="M 115.363281 80.820312 L 34.402344 80.820312 C 33.789062 80.738281 33.339844 80.671875 33.058594 80.613281 C 30.464844 80.066406 28.3125 78.035156 27.449219 75.609375 C 27.191406 74.882812 27.09375 74.125 26.96875 73.355469 L 26.96875 16.34375 C 27.105469 15.976562 27.09375 15.566406 27.171875 15.253906 C 27.273438 14.828125 27.378906 14.351562 27.546875 13.957031 C 28.640625 11.398438 30.546875 9.820312 33.273438 9.214844 C 33.523438 9.160156 33.773438 9.125 34.023438 9.113281 C 34.363281 9.101562 34.691406 9.023438 35.035156 9.023438 C 61.414062 9.007812 88.070312 9.007812 115.011719 9.023438 C 115.214844 9.023438 115.421875 9.035156 115.621094 9.066406 C 115.824219 9.097656 116.027344 9.125 116.230469 9.152344 C 116.9375 9.246094 117.558594 9.414062 118.101562 9.65625 C 120.679688 10.804688 122.582031 13.226562 122.769531 16.113281 C 122.800781 16.578125 122.847656 17.035156 122.847656 17.5 C 122.738281 31.816406 122.796875 46.140625 122.800781 61.46875 C 122.800781 64.75 122.886719 68.203125 122.839844 71.664062 C 122.824219 72.730469 122.800781 73.449219 122.765625 73.828125 C 122.550781 76.09375 121.484375 77.9375 119.558594 79.367188 C 118.640625 80.046875 117.617188 80.476562 116.484375 80.660156 C 116.113281 80.722656 115.738281 80.773438 115.363281 80.820312 Z M 73.480469 52.183594 C 74.699219 52.644531 76.128906 52.34375 77.074219 51.464844 C 85.429688 43.683594 93.738281 35.980469 102 28.359375 C 106.769531 23.957031 111.5 19.578125 116.191406 15.222656 C 116.261719 15.152344 116.265625 15.085938 116.199219 15.011719 C 116.089844 14.898438 115.933594 14.84375 115.722656 14.84375 C 88.359375 14.835938 61.332031 14.828125 34.636719 14.828125 C 34.113281 14.828125 33.8125 14.949219 33.460938 15.289062 C 33.410156 15.339844 33.410156 15.386719 33.460938 15.433594 C 33.75 15.683594 34.035156 15.941406 34.320312 16.203125 C 37.503906 19.109375 41.074219 22.414062 45.035156 26.105469 C 53.53125 34.035156 61.78125 41.699219 69.777344 49.097656 C 70.488281 49.753906 71.214844 50.429688 71.964844 51.117188 C 72.5625 51.671875 73.070312 52.027344 73.480469 52.183594 Z M 116.882812 22.824219 C 116.882812 22.804688 116.871094 22.789062 116.851562 22.773438 C 116.832031 22.757812 116.8125 22.753906 116.792969 22.769531 C 116.132812 23.277344 115.605469 23.875 114.976562 24.460938 C 108.191406 30.765625 101.230469 37.257812 94.089844 43.945312 C 94.023438 44.007812 93.953125 44.066406 93.875 44.117188 C 93.765625 44.191406 93.761719 44.269531 93.863281 44.355469 C 94.101562 44.558594 94.308594 44.742188 94.492188 44.914062 C 98.351562 48.53125 102.507812 52.445312 106.953125 56.65625 C 107.816406 57.472656 108.570312 58.199219 109.222656 58.839844 C 109.929688 59.53125 110.679688 60.191406 111.386719 60.882812 C 111.9375 61.425781 112.476562 61.9375 113.007812 62.417969 C 113.886719 63.210938 114.691406 64.050781 115.574219 64.851562 C 115.992188 65.230469 116.398438 65.621094 116.792969 66.03125 C 116.808594 66.046875 116.828125 66.054688 116.851562 66.050781 C 116.886719 66.042969 116.90625 66.027344 116.90625 66 C 116.90625 51.632812 116.90625 37.269531 116.902344 22.910156 C 116.902344 22.894531 116.898438 22.875 116.890625 22.859375 C 116.882812 22.847656 116.882812 22.835938 116.882812 22.824219 Z M 33.03125 66.050781 C 33.625 65.457031 34.269531 64.832031 34.960938 64.171875 C 41.171875 58.269531 47.300781 52.414062 53.355469 46.609375 C 54.042969 45.945312 54.769531 45.261719 55.527344 44.554688 C 55.675781 44.417969 55.675781 44.28125 55.527344 44.148438 C 55.234375 43.882812 54.957031 43.625 54.695312 43.378906 C 47.378906 36.53125 40.492188 30.113281 34.03125 24.132812 C 33.644531 23.773438 33.273438 23.425781 32.921875 23.09375 C 32.90625 23.082031 32.898438 23.082031 32.898438 23.09375 L 32.871094 65.984375 C 32.871094 66.136719 32.925781 66.160156 33.03125 66.050781 Z M 75.207031 58.390625 C 72.300781 58.523438 69.953125 57.46875 67.828125 55.464844 C 65.890625 53.644531 63.5 51.40625 60.660156 48.75 C 60.539062 48.640625 60.410156 48.53125 60.273438 48.425781 C 60.179688 48.359375 60.089844 48.363281 60.003906 48.441406 C 59.644531 48.765625 59.308594 49.128906 58.960938 49.460938 C 51.546875 56.542969 44.203125 63.574219 36.929688 70.558594 C 36.007812 71.441406 35.191406 72.210938 34.46875 72.867188 C 34.066406 73.238281 33.683594 73.605469 33.324219 73.964844 C 33.226562 74.0625 33.226562 74.160156 33.320312 74.261719 C 33.894531 74.875 34.402344 74.832031 35.328125 74.832031 C 61.917969 74.832031 88.503906 74.832031 115.09375 74.832031 C 115.75 74.832031 116.113281 74.769531 116.460938 74.238281 C 116.542969 74.113281 116.53125 74.003906 116.421875 73.902344 C 107.855469 65.796875 99.289062 57.683594 90.730469 49.558594 C 90.25 49.105469 89.847656 48.699219 89.515625 48.335938 C 89.410156 48.21875 89.300781 48.214844 89.183594 48.320312 C 86.769531 50.550781 84.375 52.816406 81.980469 55.066406 C 81.0625 55.929688 80.351562 56.523438 79.851562 56.847656 C 78.367188 57.804688 76.820312 58.316406 75.207031 58.390625 Z M 75.207031 58.390625 "/></g></g></svg>