<svg xmlns="http://www.w3.org/2000/svg" xmlns:xlink="http://www.w3.org/1999/xlink" width="200" zoomAndPan="magnify" viewBox="0 0 150 97.92" height="120" preserveAspectRatio="xMidYMid meet" version="1.2"><defs><clipPath id="09b5076a08"><path d="M 35.449219 5.414062 L 114.886719 5.414062 L 114.886719 84.847656 L 35.449219 84.847656 Z M 35.449219 5.414062 "/></clipPath></defs><g id="1ad02854a4"><g clip-rule="nonzero" clip-path="url(#09b5076a08)"><path style=" stroke:none;fill-rule:nonzero;fill:#f2f2eb;fill-opacity:1;" d="M 75.214844 5.414062 C 64.320312 5.414062 63.011719 5.414062 58.875 5.632812 C 54.734375 5.632812 51.683594 6.503906 49.285156 7.375 C 46.671875 8.464844 44.492188 9.769531 42.3125 11.949219 C 40.132812 14.128906 38.828125 16.308594 37.738281 18.921875 C 36.648438 21.539062 35.996094 24.371094 35.996094 28.511719 C 35.558594 33.085938 35.558594 34.394531 35.558594 45.070312 C 35.558594 55.964844 35.558594 57.273438 35.777344 61.410156 C 35.777344 65.550781 36.648438 68.601562 37.519531 71 C 38.609375 73.613281 39.917969 75.792969 42.097656 77.972656 C 44.273438 80.152344 46.453125 81.457031 49.070312 82.546875 C 51.683594 83.636719 54.515625 84.289062 58.65625 84.289062 C 62.796875 84.289062 64.320312 84.507812 74.996094 84.507812 C 85.675781 84.507812 87.199219 84.507812 91.339844 84.289062 C 95.480469 84.289062 98.53125 83.417969 100.925781 82.546875 C 103.542969 81.457031 105.722656 80.152344 107.898438 77.972656 C 110.078125 75.792969 111.386719 73.613281 112.476562 71 C 113.347656 68.382812 114.21875 65.550781 114.21875 61.410156 C 114.21875 57.273438 114.4375 55.746094 114.4375 45.070312 C 114.4375 34.175781 114.4375 32.867188 114.21875 28.726562 C 114.21875 24.589844 113.347656 21.539062 112.476562 19.140625 C 111.386719 16.527344 110.078125 14.347656 107.898438 12.167969 C 105.722656 9.988281 103.542969 8.683594 100.925781 7.59375 C 98.3125 6.503906 95.480469 5.847656 91.339844 5.847656 C 87.417969 5.414062 86.109375 5.414062 75.214844 5.414062 Z M 71.730469 12.605469 C 72.820312 12.605469 73.910156 12.605469 75.214844 12.605469 C 85.890625 12.605469 86.980469 12.605469 91.339844 12.820312 C 95.261719 12.820312 97.222656 13.691406 98.75 14.128906 C 100.710938 14.78125 102.015625 15.652344 103.324219 17.179688 C 104.632812 18.488281 105.503906 19.792969 106.375 21.753906 C 106.808594 23.0625 107.464844 25.242188 107.683594 29.164062 C 107.683594 33.304688 107.898438 34.609375 107.898438 45.289062 C 107.898438 55.964844 107.898438 57.054688 107.683594 61.410156 C 107.683594 65.335938 106.808594 67.296875 106.375 68.820312 C 105.722656 70.78125 104.847656 72.089844 103.324219 73.394531 C 102.015625 74.703125 100.710938 75.574219 98.75 76.445312 C 97.441406 77.101562 95.261719 77.535156 91.339844 77.753906 C 87.199219 77.753906 85.890625 77.972656 75.214844 77.972656 C 64.539062 77.972656 63.449219 77.972656 59.089844 77.753906 C 55.167969 77.753906 53.207031 76.882812 51.683594 76.445312 C 49.722656 75.792969 48.414062 74.921875 47.105469 73.394531 C 45.800781 72.089844 44.929688 70.78125 44.058594 68.820312 C 43.621094 67.511719 42.96875 65.335938 42.75 61.410156 C 42.75 57.273438 42.53125 55.964844 42.53125 45.289062 C 42.53125 34.609375 42.53125 33.523438 42.75 29.164062 C 42.75 25.242188 43.621094 23.28125 44.058594 21.753906 C 44.710938 19.792969 45.582031 18.488281 47.105469 17.179688 C 48.414062 15.871094 49.722656 15 51.683594 14.128906 C 52.992188 13.476562 55.167969 13.039062 59.089844 12.820312 C 62.796875 12.820312 64.101562 12.820312 71.511719 12.605469 Z M 75.214844 24.804688 C 63.886719 24.804688 54.734375 33.957031 54.734375 45.289062 C 54.734375 56.617188 63.886719 65.769531 75.214844 65.769531 C 86.546875 65.769531 95.699219 56.617188 95.699219 45.289062 C 95.699219 33.957031 86.546875 24.804688 75.214844 24.804688 Z M 75.214844 31.996094 C 82.625 31.996094 88.507812 37.878906 88.507812 45.289062 C 88.507812 52.695312 82.625 58.578125 75.214844 58.578125 C 67.808594 58.578125 61.925781 52.695312 61.925781 45.289062 C 61.925781 37.878906 67.808594 31.996094 75.214844 31.996094 Z M 75.214844 31.996094 "/></g></g></svg>