<svg xmlns="http://www.w3.org/2000/svg" xmlns:xlink="http://www.w3.org/1999/xlink" width="200" zoomAndPan="magnify" viewBox="0 0 150 97.92" height="120" preserveAspectRatio="xMidYMid meet" version="1.2"><defs><clipPath id="ea78f6dc19"><path d="M 37.105469 7 L 112.792969 7 L 112.792969 82.660156 L 37.105469 82.660156 Z M 37.105469 7 "/></clipPath></defs><g id="3cad04f3a9"><g clip-rule="nonzero" clip-path="url(#ea78f6dc19)"><path style=" stroke:none;fill-rule:nonzero;fill:#f2f2eb;fill-opacity:1;" d="M 74.828125 7.042969 C 53.867188 7.113281 37.113281 24.160156 37.386719 45.121094 C 37.410156 47.230469 37.613281 49.324219 37.992188 51.398438 C 38.371094 53.476562 38.921875 55.503906 39.644531 57.488281 C 40.367188 59.46875 41.25 61.378906 42.296875 63.210938 C 43.339844 65.042969 44.53125 66.777344 45.871094 68.40625 C 46.082031 68.667969 46.25 68.949219 46.375 69.257812 C 46.5 69.570312 46.578125 69.890625 46.605469 70.222656 C 46.636719 70.554688 46.617188 70.882812 46.546875 71.210938 C 46.476562 71.535156 46.359375 71.84375 46.195312 72.136719 L 42.960938 77.9375 C 42.0625 79.546875 43.523438 81.445312 45.308594 80.992188 L 56.273438 78.199219 C 57.0625 78 57.824219 78.078125 58.554688 78.433594 C 63.460938 80.820312 68.640625 82.070312 74.09375 82.1875 C 95.167969 82.664062 112.46875 65.820312 112.535156 44.738281 C 112.601562 23.886719 95.683594 6.972656 74.828125 7.042969 Z M 74.960938 77.566406 C 73.878906 77.566406 72.804688 77.511719 71.730469 77.40625 C 70.65625 77.300781 69.589844 77.144531 68.53125 76.933594 C 67.472656 76.722656 66.429688 76.460938 65.394531 76.148438 C 64.363281 75.832031 63.347656 75.46875 62.351562 75.058594 C 61.355469 74.644531 60.378906 74.183594 59.429688 73.675781 C 58.476562 73.167969 57.550781 72.613281 56.65625 72.011719 C 55.757812 71.414062 54.890625 70.773438 54.058594 70.085938 C 53.222656 69.402344 52.425781 68.679688 51.664062 67.914062 C 50.898438 67.152344 50.175781 66.355469 49.492188 65.519531 C 48.808594 64.6875 48.164062 63.820312 47.566406 62.921875 C 46.964844 62.027344 46.410156 61.101562 45.902344 60.148438 C 45.394531 59.199219 44.933594 58.222656 44.519531 57.226562 C 44.109375 56.230469 43.746094 55.214844 43.429688 54.183594 C 43.117188 53.152344 42.855469 52.105469 42.644531 51.046875 C 42.433594 49.988281 42.277344 48.921875 42.171875 47.847656 C 42.066406 46.773438 42.011719 45.699219 42.011719 44.621094 C 42.011719 26.421875 56.765625 11.671875 74.960938 11.671875 C 93.085938 11.671875 107.789062 26.308594 107.90625 44.40625 C 108.019531 62.566406 93.121094 77.566406 74.960938 77.566406 Z M 74.960938 77.566406 "/></g><path style=" stroke:none;fill-rule:nonzero;fill:#f2f2eb;fill-opacity:1;" d="M 69.070312 28.601562 L 69.085938 28.632812 L 71.050781 32.527344 C 71.265625 32.949219 71.40625 33.394531 71.472656 33.863281 C 71.539062 34.332031 71.535156 34.796875 71.449219 35.261719 C 71.367188 35.726562 71.210938 36.167969 70.984375 36.582031 C 70.761719 36.996094 70.472656 37.367188 70.128906 37.6875 C 69.785156 38.007812 69.5 38.375 69.273438 38.785156 C 69.046875 39.195312 68.890625 39.632812 68.804688 40.09375 C 68.722656 40.558594 68.710938 41.019531 68.777344 41.488281 C 68.84375 41.953125 68.980469 42.394531 69.1875 42.816406 C 70.367188 45.183594 72.410156 48.449219 75.53125 50.804688 C 75.878906 51.070312 76.261719 51.277344 76.671875 51.429688 C 77.085938 51.582031 77.511719 51.667969 77.949219 51.691406 C 78.386719 51.714844 78.820312 51.671875 79.246094 51.5625 C 79.671875 51.457031 80.070312 51.289062 80.445312 51.0625 L 81.710938 50.292969 C 82.285156 49.941406 82.910156 49.734375 83.578125 49.675781 C 84.25 49.613281 84.898438 49.703125 85.53125 49.941406 L 90.558594 51.851562 C 90.828125 51.953125 91.082031 52.082031 91.324219 52.234375 C 91.566406 52.386719 91.792969 52.558594 92.003906 52.757812 C 92.210938 52.953125 92.398438 53.167969 92.5625 53.402344 C 92.730469 53.636719 92.871094 53.882812 92.988281 54.144531 C 93.105469 54.40625 93.199219 54.675781 93.261719 54.953125 C 93.324219 55.234375 93.363281 55.515625 93.371094 55.804688 C 93.378906 56.089844 93.359375 56.375 93.3125 56.65625 C 93.265625 56.941406 93.1875 57.214844 93.085938 57.484375 C 93.027344 57.636719 92.960938 57.785156 92.886719 57.933594 L 91.492188 60.632812 C 91.265625 61.074219 90.972656 61.464844 90.613281 61.804688 C 90.25 62.144531 89.84375 62.414062 89.394531 62.617188 C 88.941406 62.820312 88.46875 62.941406 87.972656 62.980469 C 87.480469 63.023438 86.992188 62.980469 86.515625 62.855469 C 78.613281 60.8125 59.785156 53.707031 58.269531 32.226562 C 58.238281 31.796875 58.269531 31.375 58.363281 30.960938 C 58.457031 30.542969 58.609375 30.148438 58.820312 29.777344 C 59.03125 29.402344 59.289062 29.070312 59.597656 28.773438 C 59.902344 28.476562 60.246094 28.230469 60.628906 28.035156 L 63.195312 26.714844 C 63.449219 26.585938 63.714844 26.480469 63.988281 26.402344 C 64.265625 26.324219 64.546875 26.269531 64.832031 26.246094 C 65.117188 26.222656 65.402344 26.230469 65.6875 26.261719 C 65.972656 26.292969 66.25 26.355469 66.523438 26.441406 C 66.796875 26.527344 67.058594 26.640625 67.308594 26.78125 C 67.558594 26.921875 67.792969 27.082031 68.011719 27.269531 C 68.230469 27.453125 68.429688 27.660156 68.605469 27.882812 C 68.785156 28.105469 68.941406 28.347656 69.070312 28.601562 Z M 69.070312 28.601562 "/></g></svg>