<svg xmlns="http://www.w3.org/2000/svg" xmlns:xlink="http://www.w3.org/1999/xlink" width="200" zoomAndPan="magnify" viewBox="0 0 150 89.999999" height="120" preserveAspectRatio="xMidYMid meet" version="1.2"><g id="61a18fa0bc"><path style=" stroke:none;fill-rule:nonzero;fill:#1f818c;fill-opacity:1;" d="M 75 0 C 99.847656 0 120 20.152344 120 45 C 120 69.847656 99.847656 90 75 90 C 50.152344 90 30 69.847656 30 45 C 30 20.152344 50.152344 0 75 0 Z M 75 0 "/><path style=" stroke:none;fill-rule:nonzero;fill:#ffffff;fill-opacity:1;" d="M 78.9375 73.09375 L 94.335938 57.695312 C 99.195312 52.835938 91.632812 45.328125 86.753906 50.207031 L 80.476562 56.480469 L 80.476562 21.113281 C 80.476562 14.238281 69.8125 14.164062 69.8125 21.039062 L 69.8125 56.480469 L 63.5 50.167969 C 58.640625 45.308594 51.128906 52.871094 56.007812 57.75 L 71.410156 73.148438 C 73.457031 75.199219 76.886719 75.144531 78.9375 73.09375 "/></g></svg>