<svg xmlns="http://www.w3.org/2000/svg" xmlns:xlink="http://www.w3.org/1999/xlink" width="900" zoomAndPan="magnify" viewBox="0 0 675 262.499992" height="350" preserveAspectRatio="xMidYMid meet" version="1.2"><defs/><g id="c0e414c284"><g style="fill:#0d0d0d;fill-opacity:1;"><g transform="translate(11.133378, 223.619375)"><path style="stroke:none" d="M 46.875 -11.671875 C 47.289062 -11.671875 47.65625 -11.5 47.96875 -11.15625 L 51.015625 -7.890625 C 48.703125 -5.203125 45.894531 -3.109375 42.59375 -1.609375 C 39.289062 -0.117188 35.300781 0.625 30.625 0.625 C 26.582031 0.625 22.90625 -0.078125 19.59375 -1.484375 C 16.28125 -2.890625 13.453125 -4.859375 11.109375 -7.390625 C 8.773438 -9.929688 6.960938 -12.972656 5.671875 -16.515625 C 4.390625 -20.066406 3.75 -23.96875 3.75 -28.21875 C 3.75 -32.476562 4.414062 -36.378906 5.75 -39.921875 C 7.09375 -43.472656 8.976562 -46.523438 11.40625 -49.078125 C 13.84375 -51.628906 16.753906 -53.609375 20.140625 -55.015625 C 23.535156 -56.421875 27.28125 -57.125 31.375 -57.125 C 35.394531 -57.125 38.941406 -56.476562 42.015625 -55.1875 C 45.097656 -53.90625 47.804688 -52.160156 50.140625 -49.953125 L 47.625 -46.4375 C 47.46875 -46.175781 47.265625 -45.957031 47.015625 -45.78125 C 46.765625 -45.613281 46.425781 -45.53125 46 -45.53125 C 45.53125 -45.53125 44.953125 -45.785156 44.265625 -46.296875 C 43.585938 -46.804688 42.695312 -47.378906 41.59375 -48.015625 C 40.488281 -48.648438 39.109375 -49.222656 37.453125 -49.734375 C 35.796875 -50.242188 33.757812 -50.5 31.34375 -50.5 C 28.425781 -50.5 25.753906 -49.992188 23.328125 -48.984375 C 20.910156 -47.972656 18.828125 -46.503906 17.078125 -44.578125 C 15.335938 -42.660156 13.976562 -40.320312 13 -37.5625 C 12.03125 -34.800781 11.546875 -31.6875 11.546875 -28.21875 C 11.546875 -24.695312 12.050781 -21.554688 13.0625 -18.796875 C 14.082031 -16.046875 15.460938 -13.71875 17.203125 -11.8125 C 18.953125 -9.90625 21.015625 -8.453125 23.390625 -7.453125 C 25.773438 -6.453125 28.347656 -5.953125 31.109375 -5.953125 C 32.785156 -5.953125 34.300781 -6.050781 35.65625 -6.25 C 37.007812 -6.445312 38.253906 -6.753906 39.390625 -7.171875 C 40.535156 -7.597656 41.601562 -8.128906 42.59375 -8.765625 C 43.582031 -9.410156 44.5625 -10.179688 45.53125 -11.078125 C 45.976562 -11.472656 46.425781 -11.671875 46.875 -11.671875 Z M 46.875 -11.671875 "/></g></g><g style="fill:#0d0d0d;fill-opacity:1;"><g transform="translate(63.013951, 223.619375)"><path style="stroke:none" d="M 22.390625 -40.5625 C 25.304688 -40.5625 27.929688 -40.070312 30.265625 -39.09375 C 32.609375 -38.125 34.609375 -36.742188 36.265625 -34.953125 C 37.921875 -33.171875 39.1875 -31.007812 40.0625 -28.46875 C 40.945312 -25.9375 41.390625 -23.109375 41.390625 -19.984375 C 41.390625 -16.828125 40.945312 -13.988281 40.0625 -11.46875 C 39.1875 -8.945312 37.921875 -6.789062 36.265625 -5 C 34.609375 -3.21875 32.609375 -1.847656 30.265625 -0.890625 C 27.929688 0.0664062 25.304688 0.546875 22.390625 0.546875 C 19.441406 0.546875 16.789062 0.0664062 14.4375 -0.890625 C 12.09375 -1.847656 10.09375 -3.21875 8.4375 -5 C 6.78125 -6.789062 5.507812 -8.945312 4.625 -11.46875 C 3.75 -13.988281 3.3125 -16.828125 3.3125 -19.984375 C 3.3125 -23.109375 3.75 -25.9375 4.625 -28.46875 C 5.507812 -31.007812 6.78125 -33.171875 8.4375 -34.953125 C 10.09375 -36.742188 12.09375 -38.125 14.4375 -39.09375 C 16.789062 -40.070312 19.441406 -40.5625 22.390625 -40.5625 Z M 22.390625 -4.921875 C 26.335938 -4.921875 29.28125 -6.238281 31.21875 -8.875 C 33.164062 -11.519531 34.140625 -15.210938 34.140625 -19.953125 C 34.140625 -24.703125 33.164062 -28.40625 31.21875 -31.0625 C 29.28125 -33.71875 26.335938 -35.046875 22.390625 -35.046875 C 20.390625 -35.046875 18.644531 -34.703125 17.15625 -34.015625 C 15.675781 -33.335938 14.441406 -32.351562 13.453125 -31.0625 C 12.472656 -29.769531 11.738281 -28.1875 11.25 -26.3125 C 10.769531 -24.4375 10.53125 -22.316406 10.53125 -19.953125 C 10.53125 -15.210938 11.507812 -11.519531 13.46875 -8.875 C 15.425781 -6.238281 18.398438 -4.921875 22.390625 -4.921875 Z M 22.390625 -4.921875 "/></g></g><g style="fill:#0d0d0d;fill-opacity:1;"><g transform="translate(107.719562, 223.619375)"><path style="stroke:none" d="M 12.1875 -34.140625 C 13.050781 -35.109375 13.96875 -35.988281 14.9375 -36.78125 C 15.914062 -37.570312 16.945312 -38.25 18.03125 -38.8125 C 19.125 -39.375 20.28125 -39.804688 21.5 -40.109375 C 22.726562 -40.410156 24.050781 -40.5625 25.46875 -40.5625 C 27.644531 -40.5625 29.566406 -40.195312 31.234375 -39.46875 C 32.910156 -38.75 34.304688 -37.726562 35.421875 -36.40625 C 36.535156 -35.082031 37.378906 -33.484375 37.953125 -31.609375 C 38.535156 -29.742188 38.828125 -27.679688 38.828125 -25.421875 L 38.828125 0 L 31.78125 0 L 31.78125 -25.421875 C 31.78125 -28.441406 31.085938 -30.785156 29.703125 -32.453125 C 28.328125 -34.128906 26.234375 -34.96875 23.421875 -34.96875 C 21.335938 -34.96875 19.394531 -34.46875 17.59375 -33.46875 C 15.800781 -32.46875 14.140625 -31.113281 12.609375 -29.40625 L 12.609375 0 L 5.5625 0 L 5.5625 -39.9375 L 9.78125 -39.9375 C 10.78125 -39.9375 11.394531 -39.445312 11.625 -38.46875 Z M 12.1875 -34.140625 "/></g></g><g style="fill:#0d0d0d;fill-opacity:1;"><g transform="translate(151.163634, 223.619375)"><path style="stroke:none" d="M 17.8125 0.625 C 14.664062 0.625 12.242188 -0.253906 10.546875 -2.015625 C 8.847656 -3.773438 8 -6.3125 8 -9.625 L 8 -34.0625 L 3.1875 -34.0625 C 2.769531 -34.0625 2.414062 -34.1875 2.125 -34.4375 C 1.832031 -34.6875 1.6875 -35.070312 1.6875 -35.59375 L 1.6875 -38.390625 L 8.234375 -39.21875 L 9.859375 -51.5625 C 9.929688 -51.957031 10.101562 -52.28125 10.375 -52.53125 C 10.65625 -52.78125 11.019531 -52.90625 11.46875 -52.90625 L 15.015625 -52.90625 L 15.015625 -39.140625 L 26.5625 -39.140625 L 26.5625 -34.0625 L 15.015625 -34.0625 L 15.015625 -10.09375 C 15.015625 -8.40625 15.421875 -7.15625 16.234375 -6.34375 C 17.054688 -5.53125 18.109375 -5.125 19.390625 -5.125 C 20.128906 -5.125 20.765625 -5.222656 21.296875 -5.421875 C 21.835938 -5.617188 22.304688 -5.832031 22.703125 -6.0625 C 23.097656 -6.300781 23.429688 -6.519531 23.703125 -6.71875 C 23.984375 -6.914062 24.226562 -7.015625 24.4375 -7.015625 C 24.8125 -7.015625 25.140625 -6.789062 25.421875 -6.34375 L 27.484375 -3 C 26.265625 -1.863281 24.800781 -0.972656 23.09375 -0.328125 C 21.382812 0.304688 19.625 0.625 17.8125 0.625 Z M 17.8125 0.625 "/></g></g><g style="fill:#0d0d0d;fill-opacity:1;"><g transform="translate(179.429879, 223.619375)"><path style="stroke:none" d="M 27.203125 -17.96875 C 23.972656 -17.863281 21.21875 -17.609375 18.9375 -17.203125 C 16.664062 -16.796875 14.8125 -16.265625 13.375 -15.609375 C 11.945312 -14.953125 10.910156 -14.175781 10.265625 -13.28125 C 9.617188 -12.382812 9.296875 -11.390625 9.296875 -10.296875 C 9.296875 -9.242188 9.46875 -8.332031 9.8125 -7.5625 C 10.15625 -6.800781 10.625 -6.175781 11.21875 -5.6875 C 11.8125 -5.207031 12.503906 -4.851562 13.296875 -4.625 C 14.097656 -4.40625 14.960938 -4.296875 15.890625 -4.296875 C 17.117188 -4.296875 18.242188 -4.421875 19.265625 -4.671875 C 20.296875 -4.921875 21.265625 -5.28125 22.171875 -5.75 C 23.078125 -6.226562 23.941406 -6.796875 24.765625 -7.453125 C 25.597656 -8.109375 26.410156 -8.859375 27.203125 -9.703125 Z M 4.53125 -34.296875 C 6.738281 -36.421875 9.117188 -38.007812 11.671875 -39.0625 C 14.222656 -40.113281 17.046875 -40.640625 20.140625 -40.640625 C 22.378906 -40.640625 24.363281 -40.269531 26.09375 -39.53125 C 27.832031 -38.800781 29.289062 -37.78125 30.46875 -36.46875 C 31.65625 -35.15625 32.550781 -33.5625 33.15625 -31.6875 C 33.757812 -29.820312 34.0625 -27.773438 34.0625 -25.546875 L 34.0625 0 L 30.953125 0 C 30.265625 0 29.734375 -0.109375 29.359375 -0.328125 C 28.992188 -0.554688 28.707031 -1 28.5 -1.65625 L 27.71875 -5.4375 C 26.664062 -4.46875 25.640625 -3.609375 24.640625 -2.859375 C 23.640625 -2.109375 22.585938 -1.476562 21.484375 -0.96875 C 20.378906 -0.457031 19.203125 -0.0664062 17.953125 0.203125 C 16.703125 0.484375 15.316406 0.625 13.796875 0.625 C 12.242188 0.625 10.785156 0.410156 9.421875 -0.015625 C 8.054688 -0.453125 6.867188 -1.101562 5.859375 -1.96875 C 4.847656 -2.832031 4.046875 -3.925781 3.453125 -5.25 C 2.859375 -6.582031 2.5625 -8.15625 2.5625 -9.96875 C 2.5625 -11.550781 2.992188 -13.070312 3.859375 -14.53125 C 4.734375 -15.988281 6.140625 -17.28125 8.078125 -18.40625 C 10.023438 -19.539062 12.5625 -20.46875 15.6875 -21.1875 C 18.8125 -21.90625 22.648438 -22.320312 27.203125 -22.4375 L 27.203125 -25.546875 C 27.203125 -28.648438 26.53125 -30.992188 25.1875 -32.578125 C 23.851562 -34.171875 21.894531 -34.96875 19.3125 -34.96875 C 17.582031 -34.96875 16.128906 -34.75 14.953125 -34.3125 C 13.785156 -33.882812 12.773438 -33.398438 11.921875 -32.859375 C 11.066406 -32.316406 10.332031 -31.828125 9.71875 -31.390625 C 9.101562 -30.960938 8.492188 -30.75 7.890625 -30.75 C 7.410156 -30.75 7 -30.875 6.65625 -31.125 C 6.320312 -31.375 6.035156 -31.679688 5.796875 -32.046875 Z M 4.53125 -34.296875 "/></g></g><g style="fill:#0d0d0d;fill-opacity:1;"><g transform="translate(218.616287, 223.619375)"><path style="stroke:none" d="M 12.609375 -9.625 C 13.898438 -7.882812 15.3125 -6.660156 16.84375 -5.953125 C 18.382812 -5.242188 20.078125 -4.890625 21.921875 -4.890625 C 25.679688 -4.890625 28.554688 -6.210938 30.546875 -8.859375 C 32.546875 -11.515625 33.546875 -15.472656 33.546875 -20.734375 C 33.546875 -25.617188 32.65625 -29.210938 30.875 -31.515625 C 29.101562 -33.816406 26.578125 -34.96875 23.296875 -34.96875 C 21.015625 -34.96875 19.023438 -34.441406 17.328125 -33.390625 C 15.628906 -32.335938 14.054688 -30.851562 12.609375 -28.9375 Z M 12.609375 -34.171875 C 14.296875 -36.117188 16.195312 -37.671875 18.3125 -38.828125 C 20.425781 -39.984375 22.863281 -40.5625 25.625 -40.5625 C 27.957031 -40.5625 30.0625 -40.113281 31.9375 -39.21875 C 33.820312 -38.332031 35.421875 -37.039062 36.734375 -35.34375 C 38.054688 -33.644531 39.0625 -31.585938 39.75 -29.171875 C 40.445312 -26.753906 40.796875 -24.035156 40.796875 -21.015625 C 40.796875 -17.773438 40.398438 -14.828125 39.609375 -12.171875 C 38.828125 -9.523438 37.691406 -7.257812 36.203125 -5.375 C 34.722656 -3.5 32.914062 -2.039062 30.78125 -1 C 28.65625 0.03125 26.265625 0.546875 23.609375 0.546875 C 20.984375 0.546875 18.769531 0.0546875 16.96875 -0.921875 C 15.164062 -1.910156 13.597656 -3.3125 12.265625 -5.125 L 11.90625 -1.5 C 11.695312 -0.5 11.09375 0 10.09375 0 L 5.5625 0 L 5.5625 -58.0625 L 12.609375 -58.0625 Z M 12.609375 -34.171875 "/></g></g><g style="fill:#0d0d0d;fill-opacity:1;"><g transform="translate(262.769959, 223.619375)"><path style="stroke:none" d="M 12.96875 -39.9375 L 12.96875 0 L 5.953125 0 L 5.953125 -39.9375 Z M 14.46875 -52.46875 C 14.46875 -51.789062 14.328125 -51.15625 14.046875 -50.5625 C 13.773438 -49.96875 13.410156 -49.441406 12.953125 -48.984375 C 12.492188 -48.523438 11.953125 -48.160156 11.328125 -47.890625 C 10.710938 -47.628906 10.0625 -47.5 9.375 -47.5 C 8.695312 -47.5 8.0625 -47.628906 7.46875 -47.890625 C 6.875 -48.160156 6.351562 -48.523438 5.90625 -48.984375 C 5.46875 -49.441406 5.113281 -49.96875 4.84375 -50.5625 C 4.582031 -51.15625 4.453125 -51.789062 4.453125 -52.46875 C 4.453125 -53.15625 4.582031 -53.804688 4.84375 -54.421875 C 5.113281 -55.035156 5.46875 -55.570312 5.90625 -56.03125 C 6.351562 -56.5 6.875 -56.863281 7.46875 -57.125 C 8.0625 -57.382812 8.695312 -57.515625 9.375 -57.515625 C 10.0625 -57.515625 10.710938 -57.382812 11.328125 -57.125 C 11.953125 -56.863281 12.492188 -56.5 12.953125 -56.03125 C 13.410156 -55.570312 13.773438 -55.035156 14.046875 -54.421875 C 14.328125 -53.804688 14.46875 -53.15625 14.46875 -52.46875 Z M 14.46875 -52.46875 "/></g></g><g style="fill:#0d0d0d;fill-opacity:1;"><g transform="translate(281.692975, 223.619375)"><path style="stroke:none" d="M 12.8125 -58.0625 L 12.8125 0 L 5.796875 0 L 5.796875 -58.0625 Z M 12.8125 -58.0625 "/></g></g><g style="fill:#0d0d0d;fill-opacity:1;"><g transform="translate(300.300597, 223.619375)"><path style="stroke:none" d="M 12.96875 -39.9375 L 12.96875 0 L 5.953125 0 L 5.953125 -39.9375 Z M 14.46875 -52.46875 C 14.46875 -51.789062 14.328125 -51.15625 14.046875 -50.5625 C 13.773438 -49.96875 13.410156 -49.441406 12.953125 -48.984375 C 12.492188 -48.523438 11.953125 -48.160156 11.328125 -47.890625 C 10.710938 -47.628906 10.0625 -47.5 9.375 -47.5 C 8.695312 -47.5 8.0625 -47.628906 7.46875 -47.890625 C 6.875 -48.160156 6.351562 -48.523438 5.90625 -48.984375 C 5.46875 -49.441406 5.113281 -49.96875 4.84375 -50.5625 C 4.582031 -51.15625 4.453125 -51.789062 4.453125 -52.46875 C 4.453125 -53.15625 4.582031 -53.804688 4.84375 -54.421875 C 5.113281 -55.035156 5.46875 -55.570312 5.90625 -56.03125 C 6.351562 -56.5 6.875 -56.863281 7.46875 -57.125 C 8.0625 -57.382812 8.695312 -57.515625 9.375 -57.515625 C 10.0625 -57.515625 10.710938 -57.382812 11.328125 -57.125 C 11.953125 -56.863281 12.492188 -56.5 12.953125 -56.03125 C 13.410156 -55.570312 13.773438 -55.035156 14.046875 -54.421875 C 14.328125 -53.804688 14.46875 -53.15625 14.46875 -52.46875 Z M 14.46875 -52.46875 "/></g></g><g style="fill:#0d0d0d;fill-opacity:1;"><g transform="translate(319.223613, 223.619375)"><path style="stroke:none" d="M 33.109375 -36.9375 C 33.109375 -36.4375 33.023438 -35.945312 32.859375 -35.46875 C 32.691406 -35 32.460938 -34.59375 32.171875 -34.25 L 10.53125 -5.484375 L 32.359375 -5.484375 L 32.359375 0 L 2.28125 0 L 2.28125 -2.921875 C 2.28125 -3.265625 2.359375 -3.664062 2.515625 -4.125 C 2.679688 -4.582031 2.921875 -5.019531 3.234375 -5.4375 L 25 -34.421875 L 3.515625 -34.421875 L 3.515625 -39.9375 L 33.109375 -39.9375 Z M 33.109375 -36.9375 "/></g></g><g style="fill:#0d0d0d;fill-opacity:1;"><g transform="translate(354.861958, 223.619375)"><path style="stroke:none" d="M 27.203125 -17.96875 C 23.972656 -17.863281 21.21875 -17.609375 18.9375 -17.203125 C 16.664062 -16.796875 14.8125 -16.265625 13.375 -15.609375 C 11.945312 -14.953125 10.910156 -14.175781 10.265625 -13.28125 C 9.617188 -12.382812 9.296875 -11.390625 9.296875 -10.296875 C 9.296875 -9.242188 9.46875 -8.332031 9.8125 -7.5625 C 10.15625 -6.800781 10.625 -6.175781 11.21875 -5.6875 C 11.8125 -5.207031 12.503906 -4.851562 13.296875 -4.625 C 14.097656 -4.40625 14.960938 -4.296875 15.890625 -4.296875 C 17.117188 -4.296875 18.242188 -4.421875 19.265625 -4.671875 C 20.296875 -4.921875 21.265625 -5.28125 22.171875 -5.75 C 23.078125 -6.226562 23.941406 -6.796875 24.765625 -7.453125 C 25.597656 -8.109375 26.410156 -8.859375 27.203125 -9.703125 Z M 4.53125 -34.296875 C 6.738281 -36.421875 9.117188 -38.007812 11.671875 -39.0625 C 14.222656 -40.113281 17.046875 -40.640625 20.140625 -40.640625 C 22.378906 -40.640625 24.363281 -40.269531 26.09375 -39.53125 C 27.832031 -38.800781 29.289062 -37.78125 30.46875 -36.46875 C 31.65625 -35.15625 32.550781 -33.5625 33.15625 -31.6875 C 33.757812 -29.820312 34.0625 -27.773438 34.0625 -25.546875 L 34.0625 0 L 30.953125 0 C 30.265625 0 29.734375 -0.109375 29.359375 -0.328125 C 28.992188 -0.554688 28.707031 -1 28.5 -1.65625 L 27.71875 -5.4375 C 26.664062 -4.46875 25.640625 -3.609375 24.640625 -2.859375 C 23.640625 -2.109375 22.585938 -1.476562 21.484375 -0.96875 C 20.378906 -0.457031 19.203125 -0.0664062 17.953125 0.203125 C 16.703125 0.484375 15.316406 0.625 13.796875 0.625 C 12.242188 0.625 10.785156 0.410156 9.421875 -0.015625 C 8.054688 -0.453125 6.867188 -1.101562 5.859375 -1.96875 C 4.847656 -2.832031 4.046875 -3.925781 3.453125 -5.25 C 2.859375 -6.582031 2.5625 -8.15625 2.5625 -9.96875 C 2.5625 -11.550781 2.992188 -13.070312 3.859375 -14.53125 C 4.734375 -15.988281 6.140625 -17.28125 8.078125 -18.40625 C 10.023438 -19.539062 12.5625 -20.46875 15.6875 -21.1875 C 18.8125 -21.90625 22.648438 -22.320312 27.203125 -22.4375 L 27.203125 -25.546875 C 27.203125 -28.648438 26.53125 -30.992188 25.1875 -32.578125 C 23.851562 -34.171875 21.894531 -34.96875 19.3125 -34.96875 C 17.582031 -34.96875 16.128906 -34.75 14.953125 -34.3125 C 13.785156 -33.882812 12.773438 -33.398438 11.921875 -32.859375 C 11.066406 -32.316406 10.332031 -31.828125 9.71875 -31.390625 C 9.101562 -30.960938 8.492188 -30.75 7.890625 -30.75 C 7.410156 -30.75 7 -30.875 6.65625 -31.125 C 6.320312 -31.375 6.035156 -31.679688 5.796875 -32.046875 Z M 4.53125 -34.296875 "/></g></g><g style="fill:#000000;fill-opacity:1;"><g transform="translate(394.052423, 223.619375)"><path style="stroke:none" d=""/></g></g><g style="fill:#f2f2eb;fill-opacity:1;"><g transform="translate(414.240531, 223.619375)"><path style="stroke:none" d="M 65.984375 -56.484375 L 65.984375 0 L 59.296875 0 L 59.296875 -41.515625 C 59.296875 -42.066406 59.3125 -42.65625 59.34375 -43.28125 C 59.382812 -43.914062 59.429688 -44.5625 59.484375 -45.21875 L 40.09375 -9.890625 C 39.488281 -8.710938 38.566406 -8.125 37.328125 -8.125 L 36.234375 -8.125 C 34.992188 -8.125 34.070312 -8.710938 33.46875 -9.890625 L 13.671875 -45.375 C 13.835938 -43.976562 13.921875 -42.691406 13.921875 -41.515625 L 13.921875 0 L 7.21875 0 L 7.21875 -56.484375 L 12.84375 -56.484375 C 13.53125 -56.484375 14.054688 -56.414062 14.421875 -56.28125 C 14.796875 -56.15625 15.15625 -55.789062 15.5 -55.1875 L 35 -20.421875 C 35.320312 -19.785156 35.632812 -19.125 35.9375 -18.4375 C 36.238281 -17.757812 36.519531 -17.066406 36.78125 -16.359375 C 37.039062 -17.066406 37.316406 -17.769531 37.609375 -18.46875 C 37.898438 -19.164062 38.210938 -19.828125 38.546875 -20.453125 L 57.71875 -55.1875 C 58.03125 -55.789062 58.375 -56.15625 58.75 -56.28125 C 59.132812 -56.414062 59.671875 -56.484375 60.359375 -56.484375 Z M 65.984375 -56.484375 "/></g></g><g style="fill:#f2f2eb;fill-opacity:1;"><g transform="translate(486.226788, 223.619375)"><path style="stroke:none" d="M 32.28125 -24.328125 C 32.28125 -25.953125 32.050781 -27.441406 31.59375 -28.796875 C 31.132812 -30.148438 30.460938 -31.316406 29.578125 -32.296875 C 28.703125 -33.285156 27.632812 -34.050781 26.375 -34.59375 C 25.113281 -35.132812 23.679688 -35.40625 22.078125 -35.40625 C 18.710938 -35.40625 16.050781 -34.425781 14.09375 -32.46875 C 12.132812 -30.507812 10.921875 -27.796875 10.453125 -24.328125 Z M 37.96875 -5.59375 C 37.09375 -4.539062 36.050781 -3.625 34.84375 -2.84375 C 33.632812 -2.070312 32.335938 -1.4375 30.953125 -0.9375 C 29.578125 -0.445312 28.15625 -0.078125 26.6875 0.171875 C 25.21875 0.421875 23.757812 0.546875 22.3125 0.546875 C 19.550781 0.546875 17.007812 0.0820312 14.6875 -0.84375 C 12.363281 -1.78125 10.351562 -3.144531 8.65625 -4.9375 C 6.957031 -6.738281 5.632812 -8.96875 4.6875 -11.625 C 3.738281 -14.28125 3.265625 -17.332031 3.265625 -20.78125 C 3.265625 -23.5625 3.691406 -26.160156 4.546875 -28.578125 C 5.398438 -30.992188 6.628906 -33.085938 8.234375 -34.859375 C 9.835938 -36.640625 11.796875 -38.035156 14.109375 -39.046875 C 16.421875 -40.054688 19.023438 -40.5625 21.921875 -40.5625 C 24.304688 -40.5625 26.515625 -40.160156 28.546875 -39.359375 C 30.585938 -38.554688 32.351562 -37.398438 33.84375 -35.890625 C 35.332031 -34.378906 36.492188 -32.515625 37.328125 -30.296875 C 38.171875 -28.078125 38.59375 -25.546875 38.59375 -22.703125 C 38.59375 -21.597656 38.472656 -20.863281 38.234375 -20.5 C 38.003906 -20.132812 37.5625 -19.953125 36.90625 -19.953125 L 10.203125 -19.953125 C 10.285156 -17.421875 10.632812 -15.222656 11.25 -13.359375 C 11.875 -11.492188 12.738281 -9.9375 13.84375 -8.6875 C 14.945312 -7.4375 16.257812 -6.503906 17.78125 -5.890625 C 19.300781 -5.273438 21.007812 -4.96875 22.90625 -4.96875 C 24.664062 -4.96875 26.179688 -5.171875 27.453125 -5.578125 C 28.734375 -5.984375 29.832031 -6.421875 30.75 -6.890625 C 31.664062 -7.367188 32.429688 -7.8125 33.046875 -8.21875 C 33.671875 -8.625 34.207031 -8.828125 34.65625 -8.828125 C 35.226562 -8.828125 35.671875 -8.601562 35.984375 -8.15625 Z M 37.96875 -5.59375 "/></g></g><g style="fill:#f2f2eb;fill-opacity:1;"><g transform="translate(527.857414, 223.619375)"><path style="stroke:none" d="M 12.8125 -58.0625 L 12.8125 0 L 5.796875 0 L 5.796875 -58.0625 Z M 12.8125 -58.0625 "/></g></g><g style="fill:#f2f2eb;fill-opacity:1;"><g transform="translate(546.465037, 223.619375)"><path style="stroke:none" d="M 12.609375 -34.609375 C 14.316406 -36.421875 16.207031 -37.863281 18.28125 -38.9375 C 20.363281 -40.019531 22.757812 -40.5625 25.46875 -40.5625 C 27.644531 -40.5625 29.566406 -40.195312 31.234375 -39.46875 C 32.910156 -38.75 34.304688 -37.726562 35.421875 -36.40625 C 36.535156 -35.082031 37.378906 -33.484375 37.953125 -31.609375 C 38.535156 -29.742188 38.828125 -27.679688 38.828125 -25.421875 L 38.828125 0 L 31.78125 0 L 31.78125 -25.421875 C 31.78125 -28.441406 31.085938 -30.785156 29.703125 -32.453125 C 28.328125 -34.128906 26.234375 -34.96875 23.421875 -34.96875 C 21.335938 -34.96875 19.394531 -34.46875 17.59375 -33.46875 C 15.800781 -32.46875 14.140625 -31.113281 12.609375 -29.40625 L 12.609375 0 L 5.5625 0 L 5.5625 -58.0625 L 12.609375 -58.0625 Z M 12.609375 -34.609375 "/></g></g><g style="fill:#f2f2eb;fill-opacity:1;"><g transform="translate(590.461035, 223.619375)"><path style="stroke:none" d="M 22.390625 -40.5625 C 25.304688 -40.5625 27.929688 -40.070312 30.265625 -39.09375 C 32.609375 -38.125 34.609375 -36.742188 36.265625 -34.953125 C 37.921875 -33.171875 39.1875 -31.007812 40.0625 -28.46875 C 40.945312 -25.9375 41.390625 -23.109375 41.390625 -19.984375 C 41.390625 -16.828125 40.945312 -13.988281 40.0625 -11.46875 C 39.1875 -8.945312 37.921875 -6.789062 36.265625 -5 C 34.609375 -3.21875 32.609375 -1.847656 30.265625 -0.890625 C 27.929688 0.0664062 25.304688 0.546875 22.390625 0.546875 C 19.441406 0.546875 16.789062 0.0664062 14.4375 -0.890625 C 12.09375 -1.847656 10.09375 -3.21875 8.4375 -5 C 6.78125 -6.789062 5.507812 -8.945312 4.625 -11.46875 C 3.75 -13.988281 3.3125 -16.828125 3.3125 -19.984375 C 3.3125 -23.109375 3.75 -25.9375 4.625 -28.46875 C 5.507812 -31.007812 6.78125 -33.171875 8.4375 -34.953125 C 10.09375 -36.742188 12.09375 -38.125 14.4375 -39.09375 C 16.789062 -40.070312 19.441406 -40.5625 22.390625 -40.5625 Z M 22.390625 -4.921875 C 26.335938 -4.921875 29.28125 -6.238281 31.21875 -8.875 C 33.164062 -11.519531 34.140625 -15.210938 34.140625 -19.953125 C 34.140625 -24.703125 33.164062 -28.40625 31.21875 -31.0625 C 29.28125 -33.71875 26.335938 -35.046875 22.390625 -35.046875 C 20.390625 -35.046875 18.644531 -34.703125 17.15625 -34.015625 C 15.675781 -33.335938 14.441406 -32.351562 13.453125 -31.0625 C 12.472656 -29.769531 11.738281 -28.1875 11.25 -26.3125 C 10.769531 -24.4375 10.53125 -22.316406 10.53125 -19.953125 C 10.53125 -15.210938 11.507812 -11.519531 13.46875 -8.875 C 15.425781 -6.238281 18.398438 -4.921875 22.390625 -4.921875 Z M 22.390625 -4.921875 "/></g></g><g style="fill:#f2f2eb;fill-opacity:1;"><g transform="translate(635.166657, 223.619375)"><path style="stroke:none" d="M 12.21875 -31.9375 C 13.476562 -34.664062 15.023438 -36.796875 16.859375 -38.328125 C 18.703125 -39.867188 20.953125 -40.640625 23.609375 -40.640625 C 24.453125 -40.640625 25.257812 -40.546875 26.03125 -40.359375 C 26.8125 -40.179688 27.503906 -39.894531 28.109375 -39.5 L 27.59375 -34.25 C 27.4375 -33.59375 27.039062 -33.265625 26.40625 -33.265625 C 26.039062 -33.265625 25.503906 -33.34375 24.796875 -33.5 C 24.085938 -33.664062 23.285156 -33.75 22.390625 -33.75 C 21.128906 -33.75 20.003906 -33.5625 19.015625 -33.1875 C 18.035156 -32.820312 17.15625 -32.273438 16.375 -31.546875 C 15.601562 -30.828125 14.90625 -29.9375 14.28125 -28.875 C 13.664062 -27.8125 13.109375 -26.597656 12.609375 -25.234375 L 12.609375 0 L 5.5625 0 L 5.5625 -39.9375 L 9.578125 -39.9375 C 10.335938 -39.9375 10.863281 -39.789062 11.15625 -39.5 C 11.445312 -39.207031 11.644531 -38.707031 11.75 -38 Z M 12.21875 -31.9375 "/></g></g><g style="fill:#0d0d0d;fill-opacity:1;"><g transform="translate(263.344365, 116.471465)"><path style="stroke:none" d="M 55.21875 -13.75 C 55.71875 -13.75 56.15625 -13.546875 56.53125 -13.140625 L 60.09375 -9.296875 C 57.375 -6.128906 54.070312 -3.660156 50.1875 -1.890625 C 46.300781 -0.128906 41.601562 0.75 36.09375 0.75 C 31.320312 0.75 26.984375 -0.078125 23.078125 -1.734375 C 19.179688 -3.390625 15.851562 -5.710938 13.09375 -8.703125 C 10.34375 -11.691406 8.207031 -15.273438 6.6875 -19.453125 C 5.164062 -23.640625 4.40625 -28.238281 4.40625 -33.25 C 4.40625 -38.269531 5.195312 -42.867188 6.78125 -47.046875 C 8.363281 -51.222656 10.582031 -54.8125 13.4375 -57.8125 C 16.300781 -60.820312 19.726562 -63.15625 23.71875 -64.8125 C 27.71875 -66.46875 32.132812 -67.296875 36.96875 -67.296875 C 41.707031 -67.296875 45.882812 -66.535156 49.5 -65.015625 C 53.125 -63.503906 56.316406 -61.445312 59.078125 -58.84375 L 56.109375 -54.71875 C 55.921875 -54.40625 55.675781 -54.144531 55.375 -53.9375 C 55.082031 -53.738281 54.691406 -53.640625 54.203125 -53.640625 C 53.640625 -53.640625 52.957031 -53.941406 52.15625 -54.546875 C 51.351562 -55.148438 50.300781 -55.820312 49 -56.5625 C 47.695312 -57.3125 46.070312 -57.988281 44.125 -58.59375 C 42.175781 -59.195312 39.773438 -59.5 36.921875 -59.5 C 33.484375 -59.5 30.335938 -58.898438 27.484375 -57.703125 C 24.640625 -56.515625 22.1875 -54.789062 20.125 -52.53125 C 18.070312 -50.269531 16.472656 -47.515625 15.328125 -44.265625 C 14.179688 -41.015625 13.609375 -37.34375 13.609375 -33.25 C 13.609375 -29.101562 14.203125 -25.40625 15.390625 -22.15625 C 16.585938 -18.90625 18.210938 -16.15625 20.265625 -13.90625 C 22.328125 -11.664062 24.757812 -9.957031 27.5625 -8.78125 C 30.363281 -7.601562 33.390625 -7.015625 36.640625 -7.015625 C 38.628906 -7.015625 40.421875 -7.128906 42.015625 -7.359375 C 43.609375 -7.585938 45.078125 -7.953125 46.421875 -8.453125 C 47.765625 -8.953125 49.015625 -9.578125 50.171875 -10.328125 C 51.335938 -11.085938 52.492188 -11.992188 53.640625 -13.046875 C 54.171875 -13.515625 54.695312 -13.75 55.21875 -13.75 Z M 55.21875 -13.75 "/></g></g><g style="fill:#f2f2eb;fill-opacity:1;"><g transform="translate(325.394143, 116.471465)"><path style="stroke:none" d="M 77.75 -66.5625 L 77.75 0 L 69.859375 0 L 69.859375 -48.90625 C 69.859375 -49.550781 69.878906 -50.242188 69.921875 -50.984375 C 69.972656 -51.734375 70.03125 -52.492188 70.09375 -53.265625 L 47.234375 -11.65625 C 46.523438 -10.257812 45.441406 -9.5625 43.984375 -9.5625 L 42.6875 -9.5625 C 41.226562 -9.5625 40.144531 -10.257812 39.4375 -11.65625 L 16.109375 -53.453125 C 16.296875 -51.816406 16.390625 -50.300781 16.390625 -48.90625 L 16.390625 0 L 8.5 0 L 8.5 -66.5625 L 15.140625 -66.5625 C 15.941406 -66.5625 16.5625 -66.484375 17 -66.328125 C 17.4375 -66.171875 17.851562 -65.738281 18.25 -65.03125 L 41.25 -24.0625 C 41.613281 -23.3125 41.972656 -22.535156 42.328125 -21.734375 C 42.691406 -20.929688 43.023438 -20.113281 43.328125 -19.28125 C 43.640625 -20.113281 43.960938 -20.9375 44.296875 -21.75 C 44.640625 -22.570312 45.015625 -23.359375 45.421875 -24.109375 L 68 -65.03125 C 68.363281 -65.738281 68.769531 -66.171875 69.21875 -66.328125 C 69.675781 -66.484375 70.304688 -66.5625 71.109375 -66.5625 Z M 77.75 -66.5625 "/></g></g></g></svg>